<svg width="500" height="400" xmlns="http://www.w3.org/2000/svg">

 <g>
  <title>Layer 1</title>
  <g id="freepik--shadows-2--inject-338">
   <path opacity="0.1" d="m420.25,285.99661q-11.6,-12.42 -33.26,-19a8.8,8.8 0 0 0 -3.61,-0.19a102.25,102.25 0 0 0 -42,17.75a1.5,1.5 0 0 0 -0.13,2.39l0.58,0.51c-20.09,-5.47 -44.79,-3.42 -61.4,6.17c-21.14,12.2 -21.14,32 0,44.2s55.41,12.2 76.55,0c14.9,-8.6 19.29,-21 13.19,-31.79a129.55,129.55 0 0 0 13.3,5.21a5.16,5.16 0 0 0 3.44,-0.26c12.22,-6.17 24.6,-14.34 33.27,-22.31a1.9,1.9 0 0 0 0.07,-2.68z" id="freepik--Shadow--inject-338"/>
   <path opacity="0.1" d="m428.05,272.85661c-6,3.46 -6,9.07 0,12.53s15.7,3.45 21.69,0s6,-9.07 0,-12.53s-15.74,-3.46 -21.69,0z" id="freepik--shadow--inject-338"/>
   <path opacity="0.1" d="m290.57,371.07661c1.64,-2.18 2.65,-4.78 2.15,-7.27a32.32,32.32 0 0 1 -16.93,3.15c-5.6,-0.33 -11.09,-2.28 -16.21,-4.63a6.37,6.37 0 0 1 -2.74,-2c-0.47,-0.7 -0.65,-1.56 -1.15,-2.24a11.91,11.91 0 0 0 -1.73,-1.59a2.45,2.45 0 0 1 -1,-2.05q-5.19,1 -10.31,2.33a7.56,7.56 0 0 0 -4,2.53c-0.89,0.95 -2.55,2.37 -3.86,1.29a2.17,2.17 0 0 1 -3,-0.64a5.23,5.23 0 0 0 -0.63,-1.11c-0.22,-0.23 -0.54,-0.37 -0.66,-0.66c-0.19,-0.46 0.2,-0.93 0.57,-1.25a58.4,58.4 0 0 1 10.93,-7.08c-2.84,-1.2 -4.55,-5 -4.27,-8a10.94,10.94 0 0 1 5.19,-7.83a21.83,21.83 0 0 1 9.18,-3a38.67,38.67 0 0 1 17.74,1.83a30.66,30.66 0 0 1 14.38,10.41c1.33,1.8 2.44,3.74 3.67,5.61c1.73,2.61 3.9,4.84 5.73,7.36c2.95,4.06 4.81,9 2.41,13.72a11,11 0 0 1 -2.78,3.47a12.51,12.51 0 0 1 -3.35,2a10.74,10.74 0 0 1 -3.69,1c-0.46,0 -2.43,0.17 -2.25,-0.71c0.06,-0.28 0.38,-0.41 0.65,-0.5a12.81,12.81 0 0 0 3.31,-1.65a13.5,13.5 0 0 0 2.65,-2.49z" id="freepik--shadow--inject-338"/>
  </g>
  <g id="freepik--shadows-1--inject-338">
   <path opacity="0.1" d="m44.16,244.17661c-6,3.46 -6,9.06 0,12.52s15.7,3.46 21.69,0s6,-9.06 0,-12.52s-15.7,-3.46 -21.69,0z" id="freepik--shadow--inject-338"/>
   <path opacity="0.1" d="m237.71,185.28661c0.39,0.43 1,0.76 1.08,1.34a1.34,1.34 0 0 1 -0.49,1c-1,1 -2.57,1.1 -3.9,1.56s-2.7,1.72 -2.28,3.07a2.32,2.32 0 0 0 1.56,1.39a5.44,5.44 0 0 0 4.07,-0.64c1.25,-0.64 2.39,-1.5 3.7,-2c2.75,-1.13 6.07,-0.76 8.49,-2.49c0.56,-0.4 1.14,-0.93 1.82,-0.85a2.29,2.29 0 0 1 0.89,0.36l4.66,2.73a4,4 0 0 1 -2.49,3.5a10.93,10.93 0 0 1 -4.48,0.71a13.34,13.34 0 0 0 -4.5,0.55a2.13,2.13 0 0 0 -1.52,1.44c-0.22,1.19 0.8,1.44 1.68,1.83c1.27,0.56 1.54,2 2.87,2.58a9.26,9.26 0 0 0 3.63,0.54c3.49,0 7.12,0.06 10.3,-1.39c1.83,-0.84 3.72,-2.18 5.67,-1.65a3.91,3.91 0 0 1 2.37,4.84a5.94,5.94 0 0 1 -4.34,3.76a12.89,12.89 0 0 1 -5.95,-0.21a59.66,59.66 0 0 0 -5.87,-1.28c-1.24,-0.15 -2.88,0.14 -3.1,1.37s1.21,2.05 2.39,2.47a40.47,40.47 0 0 0 8.6,2.42a14,14 0 0 0 8.68,-1.37a8.47,8.47 0 0 0 4.47,-7.26c-0.07,-3 -2,-5.6 -2.92,-8.48c-1.06,-3.49 -0.49,-7.37 -1.89,-10.73c-1.67,-4 -5.81,-6.44 -10,-7.61a28.14,28.14 0 0 0 -17.56,0.94c-2.52,1 -4.64,1.89 -5.87,4.47a2.66,2.66 0 0 0 0.23,3.09z" id="freepik--shadow--inject-338"/>
   <path opacity="0.1" d="m218.46,206.13661l-62.68,-36a4.22,4.22 0 0 0 -3.91,0.06l-101.26,62.87a1.24,1.24 0 0 0 0,2.32l58.84,33.73a4.37,4.37 0 0 0 3.94,0l21.76,-12.58c-3.26,6.57 -0.41,13.95 8.56,19.13c13.16,7.6 34.5,7.6 47.66,0s13.16,-19.92 0,-27.51c-9,-5.19 -21.78,-6.83 -33.18,-4.94l60.25,-34.81a1.2,1.2 0 0 0 0.02,-2.27z" id="freepik--shadow--inject-338"/>
  </g>
  <g id="freepik--side-table--inject-338">
   <g id="freepik--side-table--inject-338">
    <g id="freepik--side-table--inject-338">
     <polygon id="svg_1" fill="#00D3BB" points="211.41000366210938,208.44660425186157 206.5,205.60660791397095 211.41000366210938,204.18659448623657 211.41000366210938,208.44660425186157 "/>
     <polygon id="svg_2" fill="#fff" opacity="0.6" points="211.41000366210938,208.44660425186157 206.5,205.60660791397095 211.41000366210938,204.18659448623657 211.41000366210938,208.44660425186157 "/>
     <polygon id="svg_3" opacity="0.05" points="211.41000366210938,208.44660425186157 206.5,205.60660791397095 211.41000366210938,204.18659448623657 211.41000366210938,208.44660425186157 "/>
     <polygon id="svg_4" fill="#00D3BB" points="211.41000366210938,208.44660425186157 213.8699951171875,207.02662134170532 213.8699951171875,202.76661157608032 211.41000366210938,204.18659448623657 211.41000366210938,208.44660425186157 "/>
     <polygon id="svg_5" fill="#fff" opacity="0.75" points="211.41000366210938,208.44660425186157 213.8699951171875,207.02662134170532 213.8699951171875,202.76661157608032 211.41000366210938,204.18659448623657 211.41000366210938,208.44660425186157 "/>
     <polygon id="svg_6" fill="#00D3BB" points="186.8000030517578,218.39661645889282 186.8000030517578,222.9166054725647 151.25,202.4065957069397 151.25,197.88660669326782 186.8000030517578,218.39661645889282 "/>
     <polygon id="svg_7" fill="#fff" opacity="0.6" points="186.8000030517578,218.39661645889282 186.8000030517578,222.9166054725647 151.25,202.4065957069397 151.25,197.88660669326782 186.8000030517578,218.39661645889282 "/>
     <polygon id="svg_8" opacity="0.1" points="186.8000030517578,218.39661645889282 186.8000030517578,222.9166054725647 151.25,202.4065957069397 151.25,197.88660669326782 186.8000030517578,218.39661645889282 "/>
     <polygon id="svg_9" fill="#00D3BB" points="186.8000030517578,222.9166054725647 189.25999450683594,221.49662256240845 189.25999450683594,216.97660303115845 186.8000030517578,218.39661645889282 186.8000030517578,222.9166054725647 "/>
     <polygon id="svg_10" fill="#fff" opacity="0.75" points="186.8000030517578,222.9166054725647 189.25999450683594,221.49662256240845 189.25999450683594,216.97660303115845 186.8000030517578,218.39661645889282 186.8000030517578,222.9166054725647 "/>
     <polygon id="svg_11" fill="#00D3BB" points="148.7899932861328,162.4266152381897 184.33999633789062,182.93660974502563 184.33999633789062,219.81659936904907 148.7899932861328,199.2966103553772 148.7899932861328,162.4266152381897 "/>
     <polygon id="svg_12" fill="#fff" opacity="0.6" points="148.7899932861328,162.4266152381897 184.33999633789062,182.93660974502563 184.33999633789062,219.81659936904907 148.7899932861328,199.2966103553772 148.7899932861328,162.4266152381897 "/>
     <polygon id="svg_13" fill="#00D3BB" points="184.33999633789062,182.93660974502563 216.32000732421875,164.47660303115845 216.32000732421875,201.34659814834595 184.33999633789062,219.81659936904907 184.33999633789062,182.93660974502563 "/>
     <polygon id="svg_14" fill="#fff" opacity="0.75" points="184.33999633789062,182.93660974502563 216.32000732421875,164.47660303115845 216.32000732421875,201.34659814834595 184.33999633789062,219.81659936904907 184.33999633789062,182.93660974502563 "/>
     <polygon id="svg_15" fill="#00D3BB" points="216.32000732421875,164.47660303115845 180.77000427246094,143.95661401748657 148.7899932861328,162.4266152381897 184.33999633789062,182.93660974502563 216.32000732421875,164.47660303115845 "/>
     <polygon id="svg_16" fill="#fff" opacity="0.85" points="216.32000732421875,164.47660303115845 180.77000427246094,143.95661401748657 148.7899932861328,162.4266152381897 184.33999633789062,182.93660974502563 216.32000732421875,164.47660303115845 "/>
     <polygon id="svg_17" fill="#00D3BB" points="186.8000030517578,195.70661401748657 213.8699951171875,180.07660913467407 213.8699951171875,199.93659448623657 186.8000030517578,215.5566201210022 186.8000030517578,195.70661401748657 "/>
     <polygon id="svg_18" fill="#fff" opacity="0.7" points="186.8000030517578,195.70661401748657 213.8699951171875,180.07660913467407 213.8699951171875,199.93659448623657 186.8000030517578,215.5566201210022 186.8000030517578,195.70661401748657 "/>
     <polygon id="svg_19" opacity="0.1" points="213.8699951171875,199.93659448623657 196.7899932861328,189.93659448623657 186.8000030517578,195.70661401748657 186.8000030517578,215.5566201210022 213.8699951171875,199.93659448623657 "/>
     <polygon id="svg_20" opacity="0.05" points="213.8699951171875,199.93659448623657 196.7899932861328,189.93659448623657 213.8699951171875,180.07660913467407 213.8699951171875,199.93659448623657 "/>
     <polygon id="svg_21" fill="#00D3BB" points="186.8000030517578,184.35660791397095 213.8699951171875,168.72660303115845 213.8699951171875,177.23661279678345 186.8000030517578,192.86661767959595 186.8000030517578,184.35660791397095 "/>
     <polygon id="svg_22" fill="#fff" opacity="0.85" points="186.8000030517578,184.35660791397095 213.8699951171875,168.72660303115845 213.8699951171875,177.23661279678345 186.8000030517578,192.86661767959595 186.8000030517578,184.35660791397095 "/>
     <path id="svg_23" fill="#455a64" d="m195.19,181.30661c0,0.39 1.17,0 2.62,-0.8l4.58,-2.65c1.45,-0.84 2.62,-1.83 2.62,-2.23l0,-0.7l-9.82,5.67l0,0.71z"/>
    </g>
    <g id="freepik--shadow--inject-338">
     <path fill="#00D3BB" d="m177.7,161.50661a12.2,12.2 0 0 1 -6.68,-1.82a4,4 0 0 1 0,-7.29a13.17,13.17 0 0 1 13.36,0a4,4 0 0 1 0,7.29a12.23,12.23 0 0 1 -6.68,1.82z" id="freepik--shadow--inject-338"/>
     <path opacity="0.05" d="m177.7,161.50661a12.2,12.2 0 0 1 -6.68,-1.82a4,4 0 0 1 0,-7.29a13.17,13.17 0 0 1 13.36,0a4,4 0 0 1 0,7.29a12.23,12.23 0 0 1 -6.68,1.82z" id="freepik--shadow--inject-338"/>
    </g>
    <g id="freepik--shadow--inject-338">
     <path fill="#00D3BB" d="m188.42,176.98661a9.38,9.38 0 0 1 -5.13,-1.4a3,3 0 0 1 0,-5.6a10.1,10.1 0 0 1 10.26,0a3,3 0 0 1 0,5.6a9.33,9.33 0 0 1 -5.13,1.4z" id="freepik--shadow--inject-338"/>
     <path opacity="0.05" d="m188.42,176.98661a9.38,9.38 0 0 1 -5.13,-1.4a3,3 0 0 1 0,-5.6a10.1,10.1 0 0 1 10.26,0a3,3 0 0 1 0,5.6a9.33,9.33 0 0 1 -5.13,1.4z" id="freepik--shadow--inject-338"/>
    </g>
    <g id="freepik--Lamp--inject-338">
     <path id="svg_24" fill="#37474f" d="m183.67,155.60661a2,2 0 0 0 0,-0.48a7.12,7.12 0 0 0 -2.89,-4.3l-6,0a7.12,7.12 0 0 0 -2.89,4.3a2,2 0 0 0 0,0.48l0,0.08a3.06,3.06 0 0 0 1.73,2.3a9.32,9.32 0 0 0 8.42,0a3,3 0 0 0 1.73,-2.3a0.54,0.54 0 0 0 -0.1,-0.08z"/>
     <path id="svg_25" fill="#455a64" d="m174.86,150.72661c-1.58,0.92 -1.58,2.4 0,3.31a6.33,6.33 0 0 0 5.72,0c1.58,-0.91 1.58,-2.39 0,-3.31a6.33,6.33 0 0 0 -5.72,0z"/>
     <path id="svg_26" fill="#263238" d="m178.55,130.60661l-1.65,0l0,21.14l0,0a0.38,0.38 0 0 0 0.23,0.38a1.25,1.25 0 0 0 1.16,0a0.38,0.38 0 0 0 0.24,-0.38l0,0l0.02,-21.14z"/>
     <path id="svg_27" fill="#00D3BB" d="m189.85,127.43661l0,0l-5.71,-14.58l-12.84,0l-5.71,14.57l0,0c-0.81,2.28 0.31,4.74 3.37,6.51c4.84,2.8 12.69,2.8 17.53,0c3.06,-1.76 4.18,-4.22 3.36,-6.5z"/>
     <path id="svg_28" fill="#00D3BB" d="m173.08,116.35661a10.27,10.27 0 0 0 9.29,0c2.57,-1.48 2.57,-3.88 0,-5.36a10.21,10.21 0 0 0 -9.29,0c-2.57,1.48 -2.57,3.86 0,5.36z"/>
     <path id="svg_29" fill="#fff" opacity="0.3" d="m173.08,116.35661a10.27,10.27 0 0 0 9.29,0c2.57,-1.48 2.57,-3.88 0,-5.36a10.21,10.21 0 0 0 -9.29,0c-2.57,1.48 -2.57,3.86 0,5.36z"/>
     <path id="svg_30" fill="#00D3BB" d="m177.72,116.70661a8.66,8.66 0 0 1 -4.26,-1a2.09,2.09 0 0 1 0,-4a9.51,9.51 0 0 1 8.53,0a2.09,2.09 0 0 1 0,4a8.7,8.7 0 0 1 -4.27,1z"/>
     <path id="svg_31" opacity="0.15" d="m177.72,116.70661a8.66,8.66 0 0 1 -4.26,-1a2.09,2.09 0 0 1 0,-4a9.51,9.51 0 0 1 8.53,0a2.09,2.09 0 0 1 0,4a8.7,8.7 0 0 1 -4.27,1z"/>
    </g>
    <g id="freepik--Coffee--inject-338">
     <path id="svg_32" fill="#00D3BB" d="m194.25,172.26661a3.47,3.47 0 0 0 1.4,-0.2a3.41,3.41 0 0 0 1.65,-2c0.41,-1 1.07,-3.07 0.6,-4.16c-0.59,-1.38 -2.26,-1.43 -3.37,-1.47l-0.39,0l-0.06,1.32c0.13,0 0.34,0 0.49,0c0.62,0 2,0.24 2.15,0.59c0.52,0.86 -0.81,4.15 -1.38,4.51a5.28,5.28 0 0 1 -2.15,0l-0.43,1.1a5.1,5.1 0 0 0 1.49,0.31z"/>
     <path id="svg_33" opacity="0.5" d="m194.25,172.26661a3.47,3.47 0 0 0 1.4,-0.2a3.41,3.41 0 0 0 1.65,-2c0.41,-1 1.07,-3.07 0.6,-4.16c-0.59,-1.38 -2.26,-1.43 -3.37,-1.47l-0.39,0l-0.06,1.32c0.13,0 0.34,0 0.49,0c0.62,0 2,0.24 2.15,0.59c0.52,0.86 -0.81,4.15 -1.38,4.51a5.28,5.28 0 0 1 -2.15,0l-0.43,1.1a5.1,5.1 0 0 0 1.49,0.31z"/>
     <path id="svg_34" fill="#00D3BB" d="m182.59,162.85661c0.13,-0.56 0.68,-1.12 1.67,-1.56a11.94,11.94 0 0 1 8.29,-0.08c1,0.42 1.56,1 1.7,1.52l0,0c0.43,3.69 -0.18,8 -1.48,10.38l0,0.05l0,0l0,0a2.8,2.8 0 0 1 -1.07,1a6.91,6.91 0 0 1 -6.29,0.07a2.76,2.76 0 0 1 -1.09,-1l0,0l0,0l0,-0.05c-1.34,-2.36 -2,-6.65 -1.7,-10.35l-0.03,0.02z"/>
     <path id="svg_35" opacity="0.4" d="m182.59,162.85661c0.13,-0.56 0.68,-1.12 1.67,-1.56a11.94,11.94 0 0 1 8.29,-0.08c1,0.42 1.56,1 1.7,1.52l0,0c0.43,3.69 -0.18,8 -1.48,10.38l0,0.05l0,0l0,0a2.8,2.8 0 0 1 -1.07,1a6.91,6.91 0 0 1 -6.29,0.07a2.76,2.76 0 0 1 -1.09,-1l0,0l0,0l0,-0.05c-1.34,-2.36 -2,-6.65 -1.7,-10.35l-0.03,0.02z"/>
     <path id="svg_36" fill="#00D3BB" d="m184.26,161.25661c-2.28,1 -2.26,2.63 0,3.6a11.94,11.94 0 0 0 8.29,-0.08c2.28,-1 2.26,-2.63 0,-3.6a11.94,11.94 0 0 0 -8.29,0.08z"/>
     <path id="svg_37" opacity="0.4" d="m185.07,161.85661c-1.84,0.67 -1.83,1.72 0,2.35a11.72,11.72 0 0 0 6.69,-0.07c1.84,-0.67 1.83,-1.72 0,-2.35a11.69,11.69 0 0 0 -6.69,0.07z"/>
     <path id="svg_38" fill="#263238" d="m185.08,163.29661a3.56,3.56 0 0 0 -0.92,0.48a3.66,3.66 0 0 0 0.93,0.45a11.72,11.72 0 0 0 6.69,-0.07a3.4,3.4 0 0 0 0.92,-0.47a3.22,3.22 0 0 0 -0.93,-0.46a11.72,11.72 0 0 0 -6.69,0.07z"/>
    </g>
   </g>
  </g>
  <g id="freepik--character-1--inject-338">
   <g id="freepik--character-on-the-couch--inject-338">
    <path id="svg_39" fill="#fafafa" d="m109.83,253.85661l-7.83,0l1.26,7.64l0,0a1.4,1.4 0 0 0 0.76,0.94a4.19,4.19 0 0 0 3.78,0a1.4,1.4 0 0 0 0.76,-0.94l0,0l1.27,-7.64z"/>
    <path id="svg_40" fill="#fafafa" d="m74.69,233.42661l-7.82,0l1.25,7.63l0,0a1.38,1.38 0 0 0 0.76,0.94a4.13,4.13 0 0 0 3.78,0a1.38,1.38 0 0 0 0.76,-0.94l0,0l1.27,-7.63z"/>
    <path id="svg_41" fill="#fafafa" d="m175.64,223.98661l-7.83,0l1.25,7.63l0,0a1.38,1.38 0 0 0 0.76,0.94a4.13,4.13 0 0 0 3.78,0a1.35,1.35 0 0 0 0.76,-0.94l0,0l1.28,-7.63z"/>
    <path id="svg_42" fill="#fafafa" d="m135.83,200.85661l-7.83,0l1.25,7.63l0,0a1.44,1.44 0 0 0 0.76,0.95a4.22,4.22 0 0 0 3.79,0a1.44,1.44 0 0 0 0.76,-0.95l0,0l1.27,-7.63z"/>
    <path id="svg_43" fill="#37474f" d="m181.88,183.85661l0,36.45a8.45,8.45 0 0 1 -3.79,6.58l-3.1,1.78l-0.05,0a8.49,8.49 0 0 1 -4.74,0.81l-46.45,24.58a8.5,8.5 0 0 1 -3.75,6.31l0,0l-3.08,1.78l-0.29,0.15l-0.16,0.08l0,0a8.68,8.68 0 0 1 -5.89,0.27a4.73,4.73 0 0 1 -0.66,-0.25l-0.11,0l-0.44,-0.23l-44.7,-25.74a8.39,8.39 0 0 1 -3.8,-6.57l-0.06,-46.15l0,-17.51a8.42,8.42 0 0 1 3.8,-6.57l50,-28.81a7.87,7.87 0 0 1 7.32,0.13l3.09,1.78a10.09,10.09 0 0 1 4.38,6.53l3,19.54l2.75,-1.59a8.24,8.24 0 0 1 8.26,0l34.8,20.09a8.42,8.42 0 0 1 3.67,6.56z"/>
    <path id="svg_44" fill="#455a64" d="m124.92,132.72661l-3.09,-1.78a7.84,7.84 0 0 0 -7.32,-0.13l-50,28.81c-0.22,0.13 -0.46,0.3 -0.39,0.25a8.64,8.64 0 0 0 -3.36,5.68c0.28,-1.93 1.86,-2.63 3.75,-1.55l3.09,1.79a8.39,8.39 0 0 0 7.59,0l49.72,-28.69c2.09,-1.25 2.09,-3.17 0.01,-4.38z"/>
    <path id="svg_45" fill="#263238" d="m181.88,183.85661l0,36.45a8.45,8.45 0 0 1 -3.79,6.58l-3.1,1.78l-0.05,0a8.15,8.15 0 0 1 -4.44,0.84a7.51,7.51 0 0 1 -3.1,-0.87l-35.12,-20.29a8.4,8.4 0 0 1 -3.8,-6.57l0,-36.41a8.38,8.38 0 0 1 3.8,-6.57l2.75,-1.59a8.24,8.24 0 0 1 8.26,0l34.8,20.09a8.42,8.42 0 0 1 3.79,6.56z"/>
    <path id="svg_46" fill="#455a64" d="m135,157.20661l-2.76,1.59c-2.08,1.2 -2.08,3.17 0,4.38l35.16,20.28a8.42,8.42 0 0 1 3.8,6.58l0,36.45c0,2.41 1.71,3.39 3.79,2.19l3.09,-1.78a8.44,8.44 0 0 0 3.8,-6.58l0,-36.46a8.4,8.4 0 0 0 -3.8,-6.57l-34.79,-20.09a8.24,8.24 0 0 0 -8.29,0.01z"/>
    <path id="svg_47" fill="#37474f" d="m171.2,190.03661l0,36.45c0,2.41 1.71,3.39 3.79,2.19l3.09,-1.78a8.44,8.44 0 0 0 3.8,-6.58l0,-36.46a7.74,7.74 0 0 0 -1.12,-3.74l-10.68,6.17a7.74,7.74 0 0 1 1.12,3.75z"/>
    <path id="svg_48" fill="#263238" d="m169.62,229.54661a8.85,8.85 0 0 1 -1.39,2.09a16.69,16.69 0 0 1 -3.57,2.5c-13.34,7.71 -23,13.24 -36.32,21a4.22,4.22 0 0 1 -3.79,0l-12.34,-7.13l-24.69,-14.3a7.12,7.12 0 0 1 0,-12.6l14,-8.09l10.69,-6.16l11.6,-6.69a8.45,8.45 0 0 1 7.59,0l35.13,20.29a8.15,8.15 0 0 1 3.79,6.3a6.68,6.68 0 0 1 -0.7,2.79z"/>
    <path id="svg_49" fill="#37474f" d="m128.34,246.85661l40.08,-23.13c1.05,-0.6 1.9,-0.11 1.9,1.1l0,3.84a4.21,4.21 0 0 1 -1.9,3.29l-40.08,23.12c-1,0.6 -1.9,0.11 -1.9,-1.1l0,-3.84a4.19,4.19 0 0 1 1.9,-3.28z"/>
    <path id="svg_50" fill="#37474f" d="m123.81,181.37661l-36.29,20.93a8.38,8.38 0 0 0 -3.8,6.57l0,7.68a8.38,8.38 0 0 0 3.8,6.57l35.13,20.28a8.39,8.39 0 0 0 7.59,0l36.29,-20.93a8.39,8.39 0 0 0 3.79,-6.57l0,-7.68a8.39,8.39 0 0 0 -3.79,-6.57l-35.13,-20.28a8.39,8.39 0 0 0 -7.59,0z"/>
    <path id="svg_51" fill="#263238" d="m126.45,227.85661l0,16.45a7.71,7.71 0 0 1 -3.8,-0.91l-35.13,-20.27a8.38,8.38 0 0 1 -3.8,-6.57l0,-7.7a8.48,8.48 0 0 1 3.41,-6.32c-1.7,1.21 -1.57,3 0.39,4.13l35.13,20.28a7.71,7.71 0 0 0 3.8,0.91z"/>
    <path id="svg_52" fill="#455a64" d="m130.24,226.96661l36.29,-20.93c2.09,-1.21 2.09,-3.17 0,-4.38l-35.13,-20.28a8.39,8.39 0 0 0 -7.59,0l-36.29,20.93c-2.1,1.21 -2.1,3.17 0,4.38l35.13,20.28a8.39,8.39 0 0 0 7.59,0z"/>
    <g id="freepik--Character--inject-338">
     <g id="freepik--Legs--inject-338">
      <path id="svg_53" fill="#263238" d="m145.4,234.93661c-0.58,0.61 -1.25,1.31 -1.17,2.08a7.7,7.7 0 0 0 2.07,4.34c1.6,1.74 2.65,5.05 2.95,7.29s0.5,8 3.35,10.23s9.76,3.39 9.76,-0.79s-8.25,-20.23 -8.25,-20.23l-8.71,-2.92z"/>
      <path id="svg_54" fill="#f28f8f" d="m149.22,237.62661a60.12,60.12 0 0 1 2.79,9c0.71,3.36 1.7,5.72 3.41,6.62s4.26,0.74 3.3,-1.54s-4.61,-13.85 -4.61,-13.85l-4.89,-0.23z"/>
      <path id="svg_55" fill="#00D3BB" d="m127.86,180.69661s12.86,6.06 19.47,9.61s12.89,7 14.2,9.87c1.39,3 1,10.22 0.31,17.15s-2.24,19.36 -2.24,19.36l-19.35,-29l-19.44,-12.83l7.05,-14.16z"/>
      <path id="svg_56" opacity="0.3" d="m127.86,180.69661s12.86,6.06 19.47,9.61s12.89,7 14.2,9.87c1.39,3 1,10.22 0.31,17.15s-2.24,19.36 -2.24,19.36l-19.35,-29l-19.44,-12.83l7.05,-14.16z"/>
      <path id="svg_57" opacity="0.1" d="m152.24,211.03661c-1.91,-4.44 -6.08,-7.4 -10,-9.81c-3.1,-1.92 -10.83,-6.42 -13.87,-8.18a14,14 0 0 0 1,-4.77s-0.94,2.18 -2.07,4.16l0,0l-0.81,1.33l19.92,14.86l13.63,24.43s-5.89,-17.58 -7.8,-22.02z"/>
      <path id="svg_58" fill="#263238" d="m161.25,258.39661c-0.56,0.37 -0.48,1.76 -0.42,2.77s-0.68,2.34 0.79,3.91s4,1.7 6,3.84s5.1,6.07 10.62,6.36s9.32,-2.13 10.06,-3.88s-0.39,-3.12 -4.12,-4.53c-4,-1.49 -5.08,-1.94 -5.08,-1.94l-17.85,-6.53z"/>
      <path id="svg_59" fill="#ffa8a7" d="m165.25,246.49661s3.73,6.73 5.82,9.76a38.09,38.09 0 0 0 8.27,8.2c0.7,0.54 2.24,1.48 2.81,1.92a1,1 0 0 1 0.21,1.59c-0.92,1.34 -5.75,2.61 -8.92,1.13s-6.65,-4.84 -8.63,-6.15c-1,-0.66 -1.92,-1.29 -2.6,-1.76a2.25,2.25 0 0 1 -1,-2c0,-0.23 0,-0.49 0,-0.8c0.05,-1.65 -3.37,-7.7 -3.37,-7.7l7.41,-4.19z"/>
      <path id="svg_60" fill="#00D3BB" d="m95.57,188.27661a30.37,30.37 0 0 0 5.17,13.3c3.11,4.92 9.52,8.51 17.86,11.31c6.91,2.32 17.06,5.63 19.07,6.06s2.44,1.51 2.9,5.08s2.87,9.07 8.26,15.46a173.27,173.27 0 0 1 10.95,14.84s5.63,0 7.79,-3.75c0,0 -15.68,-37 -18.19,-41.26s-22.86,-15.55 -22.86,-15.55s0.34,-7.65 0.62,-13.23l-31.57,7.74z"/>
      <path id="svg_61" opacity="0.3" d="m95.57,188.27661a30.37,30.37 0 0 0 5.17,13.3c3.11,4.92 9.52,8.51 17.86,11.31c6.91,2.32 17.06,5.63 19.07,6.06s2.44,1.51 2.9,5.08s2.87,9.07 8.26,15.46a173.27,173.27 0 0 1 10.95,14.84s5.63,0 7.79,-3.75c0,0 -15.68,-37 -18.19,-41.26s-22.86,-15.55 -22.86,-15.55s0.34,-7.65 0.62,-13.23l-31.57,7.74z"/>
     </g>
     <g id="freepik--Chest--inject-338">
      <g id="freepik--chest--inject-338">
       <path id="svg_62" fill="#ffa8a7" d="m142.87,177.91661c-2.94,-0.7 -6.11,-2.43 -9.26,-3.85s-6.26,-2.86 -8.6,-4l0,0c-0.38,-3.51 -1.74,-15.37 -3.49,-21.44c-1.23,-4.29 -4.47,-6.74 -8.83,-5.6c0,0 3,27.08 4.9,32.32c0.29,0.83 1,2.34 4.06,3.33c5.79,1.85 12.8,3.76 14.38,4.29"/>
       <path id="svg_63" fill="#00D3BB" d="m101.15,145.94661l-6.77,2.39s3,6.42 2.39,11.89c-0.63,5.92 -1.2,6.48 -3,8a128.49,128.49 0 0 0 2.34,23.35s8.77,2.91 21.63,-0.74c11.29,-3.21 10.17,-10.18 10.17,-10.18l-4.91,-3.7l-1.3,-9.94s5.49,-5.25 2.2,-11.47s-11.21,-12.46 -11.21,-12.46l-2.38,0.66l-9.16,2.2z"/>
       <path id="svg_64" fill="#fff" opacity="0.7" d="m101.15,145.94661l-6.77,2.39s3,6.42 2.39,11.89c-0.63,5.92 -1.2,6.48 -3,8a128.49,128.49 0 0 0 2.34,23.35s8.77,2.91 21.63,-0.74c11.29,-3.21 10.17,-10.18 10.17,-10.18l-4.91,-3.7l-1.3,-9.94s5.49,-5.25 2.2,-11.47s-11.21,-12.46 -11.21,-12.46l-2.38,0.66l-9.16,2.2z"/>
       <path id="svg_65" fill="#263238" d="m107.58,138.72661a6,6 0 0 1 -0.88,0.53c-1.26,0.67 -6.49,2.65 -7.61,1.82c-4.23,-3.19 -9.41,-7.2 -9.61,-14.66a14.85,14.85 0 0 1 1.41,-7.8a16.2,16.2 0 0 1 2.44,-3.43a10.81,10.81 0 0 1 3.58,-2.5a30.74,30.74 0 0 1 11.58,-2.83a20.14,20.14 0 0 1 7.64,1a7.54,7.54 0 0 1 4.59,4.43c0.81,2.18 0.59,4.6 -1.21,6.09c1.89,1.17 2.6,4.58 0.52,6.81c-1.23,1.31 -5,2.8 -5,2.8c-2.15,2 -3.17,3.94 -5.32,5.92a19.74,19.74 0 0 1 -2.13,1.82z"/>
       <path id="svg_66" fill="#263238" d="m99.48,107.85661c2.39,3.35 0,5.73 -3.36,8.12s-6.39,3.88 -8.78,0.53s-1.2,-7.17 2.15,-9.56s7.6,-2.49 9.99,0.91z"/>
       <path id="svg_67" fill="#263238" d="m91.39,118.52661l-3.39,2.61a2.07,2.07 0 0 1 0.3,-3a2.24,2.24 0 0 1 3.09,0.39z"/>
       <path id="svg_68" fill="#ffa8a7" d="m114.89,117.03661c1.74,1 4,5.21 4,14.23c0,7.65 -2.39,9.6 -3.62,10.18s-3.64,0.31 -6,0l0,3.16s4.21,4.6 4.06,6.71s-5.38,3.2 -8.45,1.23a24.71,24.71 0 0 1 -5.73,-5.85l-0.15,-10.61s-1.34,1.37 -3.72,-0.6c-2,-1.63 -2.69,-4.44 -1.24,-6a3.36,3.36 0 0 1 5.36,0.91a18.36,18.36 0 0 0 8.6,-2.82a13.93,13.93 0 0 0 6.89,-10.54z"/>
       <path id="svg_69" fill="#263238" d="m110.31,129.58661a1,1 0 0 1 -0.88,1.06a1,1 0 1 1 0.88,-1.06z"/>
       <path id="svg_70" fill="#f28f8f" d="m110.74,136.05661l2.25,0.65a1.15,1.15 0 0 1 -1.43,0.84a1.23,1.23 0 0 1 -0.82,-1.49z"/>
       <path id="svg_71" fill="#263238" d="m118.11,126.41661l-2,-1.29a1.13,1.13 0 0 1 1.6,-0.38a1.24,1.24 0 0 1 0.4,1.67z"/>
       <path id="svg_72" fill="#263238" d="m117.72,128.68661a1,1 0 0 1 -0.88,1.07a1,1 0 1 1 0.88,-1.07z"/>
       <polygon id="svg_73" fill="#f28f8f" points="113.37000274658203,127.77660608291626 113.4800033569336,134.0366005897522 116.5,133.01661157608032 113.37000274658203,127.77660608291626 "/>
       <path id="svg_74" fill="#f28f8f" d="m109.29,141.43661c-2.46,-0.26 -7.56,-1.57 -8.4,-3.55a5.19,5.19 0 0 0 1.84,2.5c1.55,1.26 6.6,2.58 6.6,2.58l-0.04,-1.53z"/>
      </g>
      <g id="freepik--Laptop--inject-338">
       <path id="svg_75" fill="#ebebeb" d="m109.06,200.85661l0,0.68a1.93,1.93 0 0 0 1,1.67l18.37,10.58a2,2 0 0 0 1.93,0l33.64,-19.46a1.93,1.93 0 0 0 1,-1.67l0,-0.47l-35.64,20.57l-20.3,-11.9z"/>
       <path id="svg_76" fill="#fafafa" d="m165,192.18661l-20,-11.53a1.13,1.13 0 0 0 -1.15,0l-34.66,20a0.26,0.26 0 0 0 0,0.45l20.17,11.64l35.64,-20.56z"/>
       <polygon id="svg_77" fill="#e0e0e0" points="129.1699981689453,211.0566201210022 118.38999938964844,204.84659814834595 149.91000366210938,186.64660120010376 160.74000549316406,192.83661890029907 129.1699981689453,211.0566201210022 "/>
       <polygon id="svg_78" fill="#e0e0e0" points="123.87000274658203,193.76661157608032 124.06999969482422,193.88660669326782 129.35000610351562,196.93659448623657 138.75,191.50660181045532 138.94000244140625,191.39661645889282 133.4600067138672,188.23661279678345 123.87000274658203,193.76661157608032 "/>
       <polygon id="svg_79" fill="#e6e6e6" points="124.06999969482422,193.88660669326782 129.35000610351562,196.93659448623657 138.75,191.50660181045532 133.4600067138672,188.45661401748657 124.06999969482422,193.88660669326782 "/>
       <path id="svg_80" opacity="0.1" d="m129.36,212.75661l0,1.28a1.94,1.94 0 0 0 1,-0.25l33.64,-19.46a1.93,1.93 0 0 0 1,-1.67l0,-0.47l-35.64,20.57z"/>
       <path id="svg_81" fill="#ffa8a7" d="m136,183.02661a20.6,20.6 0 0 1 4.71,2.09a13.57,13.57 0 0 0 4.22,1.25a30.48,30.48 0 0 0 3.51,1.79a9.21,9.21 0 0 0 6.11,0.49c2.37,-0.75 0.71,-2.83 -0.33,-3.7c-1.66,-1.4 -4.8,-4.17 -5.55,-4.86s-3.91,-1.71 -5.83,-2.17"/>
       <path id="svg_82" fill="#ebebeb" d="m129.9,213.03661a2.25,2.25 0 0 0 2,-0.15l33.56,-19.37a2.29,2.29 0 0 0 1.11,-1.59l3.67,-21.91a2.31,2.31 0 0 0 0,-0.37a2.24,2.24 0 0 0 -0.68,-1.62l-34.87,20.13a1.65,1.65 0 0 0 -0.82,1.18l-3.97,23.7z"/>
       <path id="svg_83" fill="#fafafa" d="m129.36,212.75661l0.22,0.13a2.3,2.3 0 0 0 0.32,0.15l4,-23.7a1.65,1.65 0 0 1 0.82,-1.18l34.86,-20.13a2,2 0 0 0 -0.46,-0.36l-34.97,20.19a1.73,1.73 0 0 0 -0.82,1.18l-3.97,23.72z"/>
       <path id="svg_84" fill="#455a64" d="m148.79,192.85661a7.44,7.44 0 0 1 3.39,-4.35c1.62,-0.93 2.73,-0.5 2.49,1a7.4,7.4 0 0 1 -3.38,4.35c-1.63,0.86 -2.74,0.43 -2.5,-1z"/>
      </g>
      <path fill="#ffa8a7" d="m110.8,196.93661c-2.31,-0.77 -16.23,-4.59 -21,-6.58c-3.25,-1.36 -3.4,-3 -3.48,-5.8c-0.08,-2.61 -1.52,-22.8 -0.12,-28c1.23,-4.62 3.25,-7 8.19,-8.17c3.07,2.42 4.94,13.4 1.75,19.59l0,14.38s6.29,3 12.25,5.67c3.14,1.41 6.32,3.15 9.26,3.85c1.92,0.46 5.07,1.48 5.82,2.17s3.9,3.46 5.56,4.86c1,0.87 2.7,2.95 0.33,3.7a9.24,9.24 0 0 1 -6.12,-0.49a30.94,30.94 0 0 1 -3.5,-1.79a13.43,13.43 0 0 1 -4.23,-1.26a20.64,20.64 0 0 0 -4.71,-2.13z" id="freepik--Arm--inject-338"/>
     </g>
    </g>
    <path id="svg_85" fill="#263238" d="m113.08,260.01661l0,-36.45a8.42,8.42 0 0 0 -3.79,-6.57l-35.18,-20.31a2.5,2.5 0 0 1 0,-4.33l0.89,-0.5l-3,-19.54a10.06,10.06 0 0 0 -4.38,-6.53l-3.09,-1.79c-2.08,-1.2 -3.79,-0.22 -3.79,2.19l0,17.55l0.05,46.12a8.42,8.42 0 0 0 3.79,6.57l44.71,25.74c2.08,1.25 3.79,0.26 3.79,-2.15z"/>
    <path id="svg_86" fill="#455a64" d="m123.76,217.39661l0,36.46a1.93,1.93 0 0 1 0,0.24a8.5,8.5 0 0 1 -3.75,6.31l0,0l-3.08,1.78l-0.29,0.15l-0.16,0.08l0,0l-0.31,0.11a8.8,8.8 0 0 1 -5.58,0.16a4.73,4.73 0 0 1 -0.66,-0.25c1.82,0.76 3.23,-0.27 3.24,-2.45l0,0l0,-36.42a8.42,8.42 0 0 0 -3.79,-6.57l-6.89,-4l-28.38,-16.31a2.5,2.5 0 0 1 0,-4.33l3.14,-1.81a8.45,8.45 0 0 1 7.59,0l28.24,16.31l6.88,4a8.39,8.39 0 0 1 3.8,6.54z"/>
    <path id="svg_87" fill="#37474f" d="m113.08,223.56661l0,36.45l0,0c0,2.18 -1.42,3.21 -3.24,2.45a4.73,4.73 0 0 0 0.66,0.25a8.8,8.8 0 0 0 5.58,-0.16l0.31,-0.11l0,0l0.16,-0.08l0.29,-0.15l3.08,-1.78l0,0a8.5,8.5 0 0 0 3.75,-6.31a1.93,1.93 0 0 0 0,-0.24l0,-36.49a7.86,7.86 0 0 0 -1.11,-3.74l-10.56,6.2a7.72,7.72 0 0 1 1.08,3.71z"/>
   </g>
  </g>
  <g id="freepik--plant-1--inject-338">
   <g id="freepik--Pot--inject-338">
    <g id="freepik--pot--inject-338">
     <path id="svg_88" fill="#00D3BB" d="m64.61,251.15661c5.13,-5.24 8.15,-26.56 3.14,-30.71l-25.48,0c-5,4.15 -2,25.46 3.13,30.71l0.14,0.14l0.18,0.17c0.15,0.15 0.3,0.28 0.47,0.42l0.12,0.09l0.39,0.3a6.65,6.65 0 0 0 0.66,0.42a16.88,16.88 0 0 0 15.29,0l0,0a6.18,6.18 0 0 0 0.66,-0.43l0.36,-0.27l0.16,-0.12a5.66,5.66 0 0 0 0.44,-0.4l0.21,-0.2l0.13,-0.12z"/>
     <path id="svg_89" fill="#fff" opacity="0.5" d="m64.61,251.15661c5.13,-5.24 8.15,-26.56 3.14,-30.71l-25.48,0c-5,4.15 -2,25.46 3.13,30.71l0.14,0.14l0.18,0.17c0.15,0.15 0.3,0.28 0.47,0.42l0.12,0.09l0.39,0.3a6.65,6.65 0 0 0 0.66,0.42a16.88,16.88 0 0 0 15.29,0l0,0a6.18,6.18 0 0 0 0.66,-0.43l0.36,-0.27l0.16,-0.12a5.66,5.66 0 0 0 0.44,-0.4l0.21,-0.2l0.13,-0.12z"/>
     <path id="svg_90" fill="#00D3BB" d="m44.48,218.76661c-5.81,3.36 -5.81,8.8 0,12.16s15.24,3.35 21.05,0s5.82,-8.8 0,-12.16s-15.24,-3.36 -21.05,0z"/>
     <path id="svg_91" fill="#fff" opacity="0.7" d="m44.48,218.76661c-5.81,3.36 -5.81,8.8 0,12.16s15.24,3.35 21.05,0s5.82,-8.8 0,-12.16s-15.24,-3.36 -21.05,0z"/>
     <ellipse id="svg_92" fill="#00D3BB" ry="6.31" rx="10.93" cy="224.84661" cx="55.01"/>
     <path id="svg_93" fill="#455a64" d="m62.74,224.61661a17.12,17.12 0 0 0 -15.46,0a7.11,7.11 0 0 0 -2.56,2.35a7.09,7.09 0 0 0 2.56,2.34a17.05,17.05 0 0 0 15.46,0a7.17,7.17 0 0 0 2.56,-2.34a7.19,7.19 0 0 0 -2.56,-2.35z"/>
    </g>
    <g id="freepik--Plants--inject-338">
     <path id="svg_94" fill="#00D3BB" d="m55.34,226.43661a17.27,17.27 0 0 1 -8.82,-1c-4.87,-1.83 -5.62,-5.09 -5.62,-5.09s4.14,-3.19 7.35,-2.92a28.67,28.67 0 0 0 -9.56,-1.23s-2.76,-1.51 -1.47,-6.29c0,0 3,-1.59 9.23,0.14a20.61,20.61 0 0 0 -8.27,-4.19c-0.44,-0.06 1.1,-6.31 2.06,-9.06s1.93,-2.15 4.16,-1.56s9,4 9.62,5.76s-0.85,5.75 -0.85,5.75a8.28,8.28 0 0 0 3.1,-3.4a8,8 0 0 1 4.06,2.44c1.74,2 1,3 0.1,4.56a19.3,19.3 0 0 1 -3.33,4.34s2.24,-0.45 5,-5.21a25.41,25.41 0 0 1 1.45,7c-0.02,2.86 -3.55,8.38 -8.21,9.96z"/>
     <path id="svg_95" opacity="0.2" d="m55.34,226.43661a17.27,17.27 0 0 1 -8.82,-1c-4.87,-1.83 -5.62,-5.09 -5.62,-5.09s4.14,-3.19 7.35,-2.92a28.67,28.67 0 0 0 -9.56,-1.23s-2.76,-1.51 -1.47,-6.29c0,0 3,-1.59 9.23,0.14a20.61,20.61 0 0 0 -8.27,-4.19c-0.44,-0.06 1.1,-6.31 2.06,-9.06s1.93,-2.15 4.16,-1.56s9,4 9.62,5.76s-0.85,5.75 -0.85,5.75a8.28,8.28 0 0 0 3.1,-3.4a8,8 0 0 1 4.06,2.44c1.74,2 1,3 0.1,4.56a19.3,19.3 0 0 1 -3.33,4.34s2.24,-0.45 5,-5.21a25.41,25.41 0 0 1 1.45,7c-0.02,2.86 -3.55,8.38 -8.21,9.96z"/>
     <path id="svg_96" fill="#fff" d="m55.2,226.68661a0.28,0.28 0 0 1 -0.15,-0.27c0.66,-9.56 -7.79,-25.86 -12.05,-29.56a0.29,0.29 0 0 1 0.37,-0.44c4.34,3.73 12.93,20.32 12.27,30a0.29,0.29 0 0 1 -0.31,0.27a0.34,0.34 0 0 1 -0.13,0z"/>
     <path id="svg_97" fill="#00D3BB" d="m54.47,228.46661a8.42,8.42 0 0 0 13.13,-2.06a1.78,1.78 0 0 0 0.29,-1.13a1.85,1.85 0 0 0 -0.69,-0.95a11.66,11.66 0 0 0 -5.44,-2.53a22.52,22.52 0 0 0 3.47,-0.16a20.9,20.9 0 0 1 4.67,0.45s2.57,-0.94 2.08,-5.24c0,0 -2.42,-1.76 -8,-1.07a17.92,17.92 0 0 1 7.69,-2.55c0.38,0 -0.14,-5.59 -0.61,-8.09s-1.39,-2.1 -3.39,-1.89s-8.3,2.29 -9.05,3.73s0,5.07 0,5.07a7.25,7.25 0 0 1 -2.24,-3.34a7,7 0 0 0 -3.82,1.59c-1.76,1.49 -1.25,2.44 -0.68,3.92a16.79,16.79 0 0 0 2.31,4.18a5.58,5.58 0 0 0 -0.88,-0.65c-0.49,-0.38 -1,-0.68 -1.48,-1.1a9.18,9.18 0 0 1 -2.14,-2.88a16.47,16.47 0 0 0 -2.24,5.56a8.47,8.47 0 0 0 0.94,5.83a6.51,6.51 0 0 0 5.91,3.15a1.29,1.29 0 0 0 0.17,0.16z"/>
     <path id="svg_98" fill="#fff" d="m54.28,229.00661a0.27,0.27 0 0 0 0.16,-0.22c0.67,-8.32 10.09,-21.32 14.25,-23.93a0.26,0.26 0 0 0 0.08,-0.35a0.27,0.27 0 0 0 -0.35,-0.08c-4.23,2.66 -13.8,15.87 -14.48,24.32a0.25,0.25 0 0 0 0.23,0.27a0.21,0.21 0 0 0 0.11,-0.01z"/>
    </g>
   </g>
  </g>
  <g id="freepik--Cat--inject-338">
   <g id="freepik--cat--inject-338">
    <path id="svg_99" fill="#00D3BB" d="m273.65,189.91661c0,1.76 -0.2,6.29 0.8,9.37c1.12,3.45 0.61,8.05 -5.8,10.18c-7.08,2.36 -11.45,-1 -15,-1.85s-3,-4 -0.06,-3.7c3.52,0.33 9.21,4.05 14.2,2.14c4.68,-1.8 3.59,-5.19 3,-7.1a12.32,12.32 0 0 1 -0.56,-4.14l3.42,-4.9z"/>
    <path id="svg_100" fill="#fff" opacity="0.65" d="m273.65,189.91661c0,1.76 -0.2,6.29 0.8,9.37c1.12,3.45 0.61,8.05 -5.8,10.18c-7.08,2.36 -11.45,-1 -15,-1.85s-3,-4 -0.06,-3.7c3.52,0.33 9.21,4.05 14.2,2.14c4.68,-1.8 3.59,-5.19 3,-7.1a12.32,12.32 0 0 1 -0.56,-4.14l3.42,-4.9z"/>
    <path id="svg_101" fill="#fff" d="m241.59,172.48661c1.3,0.57 0.43,1.93 0,3.62c-0.6,2.34 -0.86,5.83 2.46,7.75s5.66,1.35 8.06,1s2.94,0.63 3.44,1.71s0.88,3.2 3.68,3.44s5.87,-4 5.87,-4s0.38,-6.86 -5.21,-10.79s-12.75,-6.89 -18.3,-2.73z"/>
    <path id="svg_102" fill="#00D3BB" d="m241.73,175.60661a7.62,7.62 0 0 0 -3.5,2.3c-0.84,0.83 -1.06,3.66 -0.83,4.48a4.11,4.11 0 0 0 3.7,2.83c2.67,0.37 3.45,-0.56 3.6,-1.09a1.58,1.58 0 0 0 0,-0.92a0.78,0.78 0 0 0 0.06,-0.87c-0.23,-0.59 -2.28,-0.89 -3.4,-2.08a11.89,11.89 0 0 1 0.37,-4.65z"/>
    <path id="svg_103" fill="#fff" opacity="0.65" d="m241.73,175.60661a7.62,7.62 0 0 0 -3.5,2.3c-0.84,0.83 -1.06,3.66 -0.83,4.48a4.11,4.11 0 0 0 3.7,2.83c2.67,0.37 3.45,-0.56 3.6,-1.09a1.58,1.58 0 0 0 0,-0.92a0.78,0.78 0 0 0 0.06,-0.87c-0.23,-0.59 -2.28,-0.89 -3.4,-2.08a11.89,11.89 0 0 1 0.37,-4.65z"/>
    <path id="svg_104" fill="#00D3BB" d="m241.59,159.72661a8.36,8.36 0 0 0 -2.8,-1.85c-1.46,-0.49 -2,-0.53 -2.4,-0.39c-0.7,0.27 1.15,3 1.15,5.19l4.05,-2.95z"/>
    <path id="svg_105" fill="#fff" opacity="0.65" d="m241.59,159.72661a8.36,8.36 0 0 0 -2.8,-1.85c-1.46,-0.49 -2,-0.53 -2.4,-0.39c-0.7,0.27 1.15,3 1.15,5.19l4.05,-2.95z"/>
    <path id="svg_106" fill="#ffa8a7" d="m237.54,158.24661c-0.81,-0.54 -1.23,-0.67 -1.3,-0.52c-0.08,0.77 1.3,3.07 1.3,4.95l1.84,-1.34a4.48,4.48 0 0 0 -1.84,-3.09z"/>
    <path id="svg_107" fill="#00D3BB" d="m264.42,197.43661c-1.69,0.78 -4.59,2.4 -5.66,2.78a15.54,15.54 0 0 1 -4.76,0.18c-1.91,-0.07 -3.13,-0.06 -4.12,-0.06c-1.85,0 -2.21,-1.78 -0.27,-2.57a11.35,11.35 0 0 1 3.77,-0.66l11.04,0.33z"/>
    <path id="svg_108" fill="#fff" opacity="0.65" d="m264.42,197.43661c-1.69,0.78 -4.59,2.4 -5.66,2.78a15.54,15.54 0 0 1 -4.76,0.18c-1.91,-0.07 -3.13,-0.06 -4.12,-0.06c-1.85,0 -2.21,-1.78 -0.27,-2.57a11.35,11.35 0 0 1 3.77,-0.66l11.04,0.33z"/>
    <path id="svg_109" fill="#00D3BB" d="m245.12,159.30661c-3.09,0 -5.22,0.62 -7,2.6s-1.44,3.1 -1.37,4.06s-0.39,2.49 -0.29,3.53a4.66,4.66 0 0 0 2.63,3a5.9,5.9 0 0 0 4.07,-0.5a3.56,3.56 0 0 1 4.15,0.88c0.95,1.31 1.78,4.53 0.66,6.62c-1.25,2.36 -3,3.62 -6.18,4.9s-6.83,3.18 -8.06,4.42s-1.46,2.09 -0.95,2.67c0,0 0.05,1.14 1.38,0.8a1.17,1.17 0 0 0 1.29,0.57c1,-0.31 1.62,-1.32 2.49,-2.09a7.12,7.12 0 0 1 3.62,-1.61c1.47,-0.21 7.54,-1.48 10.09,-4s3.35,-4.52 5.35,-5.3s4.75,1.1 5.44,2.14a6.38,6.38 0 0 1 0.77,4.34a13.11,13.11 0 0 0 -4.56,2.19c-2.28,1.71 -2.73,3.86 -4,4.4s-2.43,-0.12 -5.56,0.49s-3.89,1.46 -4.24,2.18s0.14,1.68 1.6,1.57a36.15,36.15 0 0 1 5.21,-0.41c1.38,0.14 4,1.1 5.13,1.1c1.39,0 10.13,0.88 14.23,-3.82a15.41,15.41 0 0 0 3.78,-13.25c-0.65,-3.65 -5.83,-8.78 -9.83,-10.18s-12.13,-3.17 -13.38,-4.63s-1,-2.93 -2.27,-4.41a6.47,6.47 0 0 0 -4.2,-2.26z"/>
    <path id="svg_110" fill="#fff" opacity="0.8" d="m245.12,159.30661c-3.09,0 -5.22,0.62 -7,2.6s-1.44,3.1 -1.37,4.06s-0.39,2.49 -0.29,3.53a4.66,4.66 0 0 0 2.63,3a5.9,5.9 0 0 0 4.07,-0.5a3.56,3.56 0 0 1 4.15,0.88c0.95,1.31 1.78,4.53 0.66,6.62c-1.25,2.36 -3,3.62 -6.18,4.9s-6.83,3.18 -8.06,4.42s-1.46,2.09 -0.95,2.67c0,0 0.05,1.14 1.38,0.8a1.17,1.17 0 0 0 1.29,0.57c1,-0.31 1.62,-1.32 2.49,-2.09a7.12,7.12 0 0 1 3.62,-1.61c1.47,-0.21 7.54,-1.48 10.09,-4s3.35,-4.52 5.35,-5.3s4.75,1.1 5.44,2.14a6.38,6.38 0 0 1 0.77,4.34a13.11,13.11 0 0 0 -4.56,2.19c-2.28,1.71 -2.73,3.86 -4,4.4s-2.43,-0.12 -5.56,0.49s-3.89,1.46 -4.24,2.18s0.14,1.68 1.6,1.57a36.15,36.15 0 0 1 5.21,-0.41c1.38,0.14 4,1.1 5.13,1.1c1.39,0 10.13,0.88 14.23,-3.82a15.41,15.41 0 0 0 3.78,-13.25c-0.65,-3.65 -5.83,-8.78 -9.83,-10.18s-12.13,-3.17 -13.38,-4.63s-1,-2.93 -2.27,-4.41a6.47,6.47 0 0 0 -4.2,-2.26z"/>
    <path id="svg_111" fill="#00D3BB" d="m250.42,158.69661c-0.35,-0.4 -1.9,-0.79 -5.81,1.47l0.19,2l5.62,-3.47z"/>
    <path id="svg_112" fill="#fff" opacity="0.65" d="m250.42,158.69661c-0.35,-0.4 -1.9,-0.79 -5.81,1.47l0.19,2l5.62,-3.47z"/>
    <path id="svg_113" fill="#ffa8a7" d="m244.8,162.13661s3.72,-3.59 5.27,-3.57s-0.46,5.33 -0.46,5.33a3.29,3.29 0 0 0 -1.61,-1.44a9.3,9.3 0 0 0 -3.2,-0.32z"/>
    <path id="svg_114" fill="#f28f8f" d="m238.71,168.68661c-1.28,-0.09 -1.12,0.31 -0.94,0.62a1.69,1.69 0 0 0 0.93,0.69a2.1,2.1 0 0 0 1.43,-0.62c0.22,-0.33 -0.34,-0.61 -1.42,-0.69z"/>
    <path id="svg_115" fill="#455a64" d="m242.43,167.04661s0.26,-1 1,-1.08a1.11,1.11 0 0 1 1.08,0.54a1.15,1.15 0 0 1 -0.81,0.92a1.23,1.23 0 0 1 -1.27,-0.38z"/>
    <path id="svg_116" fill="#455a64" d="m238.53,166.68661a1,1 0 0 0 -0.47,-1.05a0.67,0.67 0 0 0 -0.38,-0.08a0.7,0.7 0 0 0 -0.52,1a0.71,0.71 0 0 0 0.28,0.26a0.89,0.89 0 0 0 1.09,-0.13z"/>
    <path id="svg_117" fill="#455a64" d="m244.87,169.19661l-0.05,0a5.31,5.31 0 0 0 -3.5,0a0.13,0.13 0 0 1 -0.17,-0.07a0.12,0.12 0 0 1 0.07,-0.17a5.42,5.42 0 0 1 3.69,0a0.13,0.13 0 0 1 0.08,0.17a0.14,0.14 0 0 1 -0.12,0.07z"/>
    <path id="svg_118" fill="#455a64" d="m244.62,170.85661a0.15,0.15 0 0 1 -0.09,0a4.18,4.18 0 0 0 -3.36,-1.09a0.15,0.15 0 0 1 -0.15,-0.12a0.13,0.13 0 0 1 0.12,-0.15a4.41,4.41 0 0 1 3.58,1.18a0.13,0.13 0 0 1 0,0.19a0.12,0.12 0 0 1 -0.1,-0.01z"/>
    <path id="svg_119" fill="#455a64" d="m237.17,168.90661a0.18,0.18 0 0 1 -0.1,0l0,0a4.2,4.2 0 0 0 -3,-0.82a0.11,0.11 0 0 1 -0.14,-0.11a0.13,0.13 0 0 1 0.11,-0.15a4.45,4.45 0 0 1 3.19,0.84s0,0 0,0l0,0l0,0.05a0.14,0.14 0 0 1 -0.05,0.16l-0.01,0.03z"/>
    <path id="svg_120" fill="#455a64" d="m234.12,169.38661a0.14,0.14 0 0 1 -0.12,-0.08a0.12,0.12 0 0 1 0.06,-0.17a3.53,3.53 0 0 1 3.07,0a0.13,0.13 0 1 1 -0.12,0.24a3.32,3.32 0 0 0 -2.83,0l-0.06,0.01z"/>
   </g>
  </g>
  <g id="freepik--plant-2--inject-338">
   <g id="freepik--pot--inject-338">
    <g id="freepik--pot--inject-338">
     <path id="svg_121" fill="#00D3BB" d="m448.5,280.90661c5.13,-5.24 8.15,-26.56 3.14,-30.71l-25.48,0c-5,4.15 -2,25.46 3.13,30.71l0.14,0.14l0.18,0.17c0.15,0.14 0.3,0.28 0.47,0.42l0.12,0.09l0.39,0.3c0.22,0.15 0.44,0.3 0.66,0.42a16.9,16.9 0 0 0 15.3,0l0,0a6.18,6.18 0 0 0 0.66,-0.43l0.37,-0.27l0.15,-0.12a5.66,5.66 0 0 0 0.44,-0.4l0.21,-0.2l0.12,-0.12z"/>
     <path id="svg_122" fill="#fff" opacity="0.5" d="m448.5,280.90661c5.13,-5.24 8.15,-26.56 3.14,-30.71l-25.48,0c-5,4.15 -2,25.46 3.13,30.71l0.14,0.14l0.18,0.17c0.15,0.14 0.3,0.28 0.47,0.42l0.12,0.09l0.39,0.3c0.22,0.15 0.44,0.3 0.66,0.42a16.9,16.9 0 0 0 15.3,0l0,0a6.18,6.18 0 0 0 0.66,-0.43l0.37,-0.27l0.15,-0.12a5.66,5.66 0 0 0 0.44,-0.4l0.21,-0.2l0.12,-0.12z"/>
     <path id="svg_123" fill="#00D3BB" d="m428.37,248.51661c-5.81,3.36 -5.81,8.8 0,12.16s15.24,3.35 21.06,0s5.81,-8.8 0,-12.16s-15.25,-3.36 -21.06,0z"/>
     <path id="svg_124" fill="#fff" opacity="0.7" d="m428.37,248.51661c-5.81,3.36 -5.81,8.8 0,12.16s15.24,3.35 21.06,0s5.81,-8.8 0,-12.16s-15.25,-3.36 -21.06,0z"/>
     <ellipse id="svg_125" fill="#00D3BB" ry="6.31" rx="10.93" cy="254.59661" cx="438.9"/>
     <path id="svg_126" fill="#455a64" d="m446.63,254.36661a17.12,17.12 0 0 0 -15.46,0a7.11,7.11 0 0 0 -2.56,2.35a7.09,7.09 0 0 0 2.56,2.34a17.05,17.05 0 0 0 15.46,0a7.17,7.17 0 0 0 2.56,-2.34a7.19,7.19 0 0 0 -2.56,-2.35z"/>
    </g>
    <g id="freepik--plants--inject-338">
     <path id="svg_127" fill="#00D3BB" d="m439.23,256.18661a17.27,17.27 0 0 1 -8.82,-1c-4.86,-1.83 -5.62,-5.09 -5.62,-5.09s4.14,-3.19 7.35,-2.92a28.67,28.67 0 0 0 -9.56,-1.23s-2.76,-1.51 -1.47,-6.29c0,0 3,-1.59 9.23,0.14a20.61,20.61 0 0 0 -8.27,-4.19c-0.44,-0.06 1.11,-6.31 2.06,-9.06s1.93,-2.15 4.16,-1.56s9,4 9.62,5.76s-0.85,5.75 -0.85,5.75a8.28,8.28 0 0 0 3.1,-3.4a7.93,7.93 0 0 1 4.06,2.44c1.74,2 1,3 0.1,4.56a19.3,19.3 0 0 1 -3.33,4.34s2.24,-0.45 5,-5.21a25.66,25.66 0 0 1 1.46,7c-0.03,2.86 -3.55,8.34 -8.22,9.96z"/>
     <path id="svg_128" opacity="0.2" d="m439.23,256.18661a17.27,17.27 0 0 1 -8.82,-1c-4.86,-1.83 -5.62,-5.09 -5.62,-5.09s4.14,-3.19 7.35,-2.92a28.67,28.67 0 0 0 -9.56,-1.23s-2.76,-1.51 -1.47,-6.29c0,0 3,-1.59 9.23,0.14a20.61,20.61 0 0 0 -8.27,-4.19c-0.44,-0.06 1.11,-6.31 2.06,-9.06s1.93,-2.15 4.16,-1.56s9,4 9.62,5.76s-0.85,5.75 -0.85,5.75a8.28,8.28 0 0 0 3.1,-3.4a7.93,7.93 0 0 1 4.06,2.44c1.74,2 1,3 0.1,4.56a19.3,19.3 0 0 1 -3.33,4.34s2.24,-0.45 5,-5.21a25.66,25.66 0 0 1 1.46,7c-0.03,2.86 -3.55,8.34 -8.22,9.96z"/>
     <path id="svg_129" fill="#fff" d="m439.09,256.43661a0.28,0.28 0 0 1 -0.15,-0.27c0.66,-9.54 -7.79,-25.86 -12.06,-29.53a0.29,0.29 0 0 1 0.37,-0.44c4.34,3.73 12.93,20.32 12.27,30a0.29,0.29 0 0 1 -0.31,0.27a0.42,0.42 0 0 1 -0.12,-0.03z"/>
     <path id="svg_130" fill="#00D3BB" d="m438.36,258.21661a8.42,8.42 0 0 0 13.13,-2.06a1.78,1.78 0 0 0 0.29,-1.13a1.85,1.85 0 0 0 -0.69,-0.95a11.66,11.66 0 0 0 -5.44,-2.53a22.52,22.52 0 0 0 3.47,-0.16a20.9,20.9 0 0 1 4.67,0.45s2.57,-0.94 2.08,-5.24c0,0 -2.42,-1.76 -8,-1.07a17.92,17.92 0 0 1 7.69,-2.55c0.38,0 -0.14,-5.59 -0.61,-8.09s-1.39,-2.1 -3.39,-1.89s-8.3,2.29 -9.05,3.73s0,5.07 0,5.07a7.25,7.25 0 0 1 -2.24,-3.34a7,7 0 0 0 -3.82,1.59c-1.76,1.49 -1.25,2.44 -0.68,3.92a16.79,16.79 0 0 0 2.31,4.18a5.58,5.58 0 0 0 -0.88,-0.65c-0.49,-0.38 -1,-0.68 -1.48,-1.1a9.18,9.18 0 0 1 -2.14,-2.88a16.47,16.47 0 0 0 -2.24,5.56a8.48,8.48 0 0 0 0.94,5.83a6.51,6.51 0 0 0 5.91,3.15a1.29,1.29 0 0 0 0.17,0.16z"/>
     <path id="svg_131" fill="#fff" d="m438.17,258.75661a0.27,0.27 0 0 0 0.16,-0.22c0.67,-8.32 10.09,-21.32 14.25,-23.93a0.26,0.26 0 0 0 0.08,-0.35a0.27,0.27 0 0 0 -0.35,-0.08c-4.23,2.66 -13.8,15.87 -14.48,24.32a0.25,0.25 0 0 0 0.23,0.27a0.21,0.21 0 0 0 0.11,-0.01z"/>
    </g>
   </g>
  </g>
  <g id="freepik--character-2--inject-338">
   <g id="freepik--chartacter-on-a-table--inject-338">
    <g id="freepik--Chair--inject-338">
     <polygon id="svg_132" fill="#455a64" points="377.2099914550781,224.85660791397095 379.92999267578125,224.93659448623657 382.17999267578125,194.81659936904907 379.4599914550781,194.73661279678345 377.2099914550781,224.85660791397095 "/>
     <polygon id="svg_133" fill="#455a64" points="400.3800048828125,237.56659936904907 403.0899963378906,237.64661645889282 405.3399963378906,207.52662134170532 402.6300048828125,207.44660425186157 400.3800048828125,237.56659936904907 "/>
     <path id="svg_134" fill="#455a64" d="m399.47,240.15661l4.53,0l6.53,46.6l0,0a0.52,0.52 0 0 1 -0.33,0.49a1.72,1.72 0 0 1 -1.59,0a0.6,0.6 0 0 1 -0.32,-0.38l0,0l-8.82,-46.71z"/>
     <path id="svg_135" fill="#455a64" d="m372.54,224.60661l4.46,0l6.52,46.6l0,0a0.55,0.55 0 0 1 -0.33,0.49a1.8,1.8 0 0 1 -1.6,0a0.61,0.61 0 0 1 -0.32,-0.39l0,0l-8.73,-46.7z"/>
     <path id="svg_136" fill="#455a64" d="m337.87,285.92661l7.75,-45.77l4.49,0l-10,45.87l0,0a0.61,0.61 0 0 1 -0.32,0.39a1.8,1.8 0 0 1 -1.6,0a0.57,0.57 0 0 1 -0.33,-0.49l0.01,0z"/>
     <path id="svg_137" fill="#455a64" d="m367,302.76661l6.52,-46.61l4.49,0l-8.72,46.7l0,0a0.65,0.65 0 0 1 -0.32,0.39a1.8,1.8 0 0 1 -1.6,0a0.55,0.55 0 0 1 -0.33,-0.49l-0.04,0.01z"/>
     <path id="svg_138" fill="#37474f" d="m345.62,240.15661l4.49,0l-1.83,8.38c-1,-0.84 -2,-1.71 -3,-2.6a3.08,3.08 0 0 1 -0.54,-0.71l0.88,-5.07z"/>
     <path id="svg_139" fill="#37474f" d="m404,240.15661l0.78,5.57a3.52,3.52 0 0 1 -0.87,1.51c-0.83,0.77 -1.71,1.54 -2.63,2.3l-1.76,-9.38l4.48,0z"/>
     <path id="svg_140" fill="#37474f" d="m372.66,262.58661l0.9,-6.43l4.49,0l-1.47,7.83c-1.33,-0.45 -2.64,-0.92 -3.92,-1.4z"/>
     <path id="svg_141" fill="#37474f" d="m376.58,225.85661a5.25,5.25 0 0 1 0.61,-0.06l5.1,36.43l-2.46,1.29l-6.92,-36.88c1.21,-0.33 2.43,-0.59 3.67,-0.78z"/>
     <path id="svg_142" fill="#00D3BB" d="m376.63,260.45661a85,85 0 0 1 -31.33,-18.06a3.59,3.59 0 0 1 -1,-2.33l0,-2.42a3.08,3.08 0 0 1 1.1,-2.2a76,76 0 0 1 31.19,-13.18a6.6,6.6 0 0 1 2.69,0.15q16.07,4.89 24.67,14.12a4.07,4.07 0 0 1 0.93,2.41l0,2.42a3.6,3.6 0 0 1 -1,2.32a114.35,114.35 0 0 1 -24.68,16.58a3.86,3.86 0 0 1 -2.57,0.19z"/>
     <path id="svg_143" opacity="0.4" d="m344.29,237.64661l0,2.42a3.59,3.59 0 0 0 1,2.33a84.88,84.88 0 0 0 31.33,18.06a3.61,3.61 0 0 0 1.42,0.11l0,-38.36a6.31,6.31 0 0 0 -1.47,0.06a75.89,75.89 0 0 0 -31.19,13.18a3.08,3.08 0 0 0 -1.09,2.2z"/>
     <path id="svg_144" opacity="0.5" d="m378.05,222.20661l0,38.36a3.18,3.18 0 0 0 1.13,-0.3a114.94,114.94 0 0 0 24.68,-16.57a3.64,3.64 0 0 0 1,-2.33l0,-2.42a4,4 0 0 0 -0.93,-2.41q-8.6,-9.23 -24.67,-14.13a6,6 0 0 0 -1.21,-0.2z"/>
     <path id="svg_145" fill="#00D3BB" d="m403.86,238.49661c-6.43,5.91 -15.61,12 -24.68,16.55a3.8,3.8 0 0 1 -2.55,0.2a84.58,84.58 0 0 1 -31.33,-18a1.11,1.11 0 0 1 0.09,-1.77a76.07,76.07 0 0 1 31.19,-13.17a6.6,6.6 0 0 1 2.69,0.15q16.07,4.89 24.67,14.1a1.41,1.41 0 0 1 -0.08,1.94z"/>
     <path id="svg_146" opacity="0.3" d="m403.86,238.49661c-6.43,5.91 -15.61,12 -24.68,16.55a3.8,3.8 0 0 1 -2.55,0.2a84.58,84.58 0 0 1 -31.33,-18a1.11,1.11 0 0 1 0.09,-1.77a76.07,76.07 0 0 1 31.19,-13.17a6.6,6.6 0 0 1 2.69,0.15q16.07,4.89 24.67,14.1a1.41,1.41 0 0 1 -0.08,1.94z"/>
     <path id="svg_147" fill="#00D3BB" d="m410.65,202.54661a49.89,49.89 0 0 0 -33.65,-19.45a4.55,4.55 0 0 0 -2.49,0.48a2.55,2.55 0 0 0 -1.13,2l0,10.2a1.62,1.62 0 0 0 1.37,1.55a49.85,49.85 0 0 1 33.7,19.45a1.56,1.56 0 0 0 1.95,0.46a2.58,2.58 0 0 0 1.13,-2l0,-10.2a4.73,4.73 0 0 0 -0.88,-2.49z"/>
     <path id="svg_148" opacity="0.5" d="m401.51,209.40661l9.75,-5.63a4.38,4.38 0 0 1 0.23,1.25l0,10.2a2.58,2.58 0 0 1 -1.13,2a1.56,1.56 0 0 1 -1.95,-0.46a55.41,55.41 0 0 0 -6.9,-7.36z"/>
     <path id="svg_149" opacity="0.3" d="m401.51,209.40661a49.7,49.7 0 0 0 -26.8,-12.06a1.62,1.62 0 0 1 -1.37,-1.55l0,-10.2a2.55,2.55 0 0 1 1.13,-2a4.55,4.55 0 0 1 2.49,-0.48a49.89,49.89 0 0 1 33.69,19.45a4.42,4.42 0 0 1 0.61,1.23l-9.75,5.61z"/>
     <path id="svg_150" fill="#00D3BB" d="m408.41,216.79661a49.85,49.85 0 0 0 -33.7,-19.45a1.62,1.62 0 0 1 -1.37,-1.55l0,-10.2a1.18,1.18 0 0 1 1.37,-1.2a49.85,49.85 0 0 1 33.7,19.46a4.77,4.77 0 0 1 0.83,2.48l0,10.19c0,0.75 -0.37,0.88 -0.83,0.27z"/>
     <path id="svg_151" opacity="0.4" d="m408.41,216.79661a49.85,49.85 0 0 0 -33.7,-19.45a1.62,1.62 0 0 1 -1.37,-1.55l0,-10.2a1.18,1.18 0 0 1 1.37,-1.2a49.85,49.85 0 0 1 33.7,19.46a4.77,4.77 0 0 1 0.83,2.48l0,10.19c0,0.75 -0.37,0.88 -0.83,0.27z"/>
    </g>
    <g id="freepik--character--inject-338">
     <path id="svg_152" fill="#ffbda7" d="m370.27,169.69661c-5.08,0.35 -7.9,2.34 -9.31,6.47s-6.59,25.29 -6.59,25.29s-10.08,6.27 -15.68,9.07l6.07,4.89s13.67,-4.72 16.08,-5.87s2.35,-1.83 5,-10.27c3.71,-12.02 4.43,-29.58 4.43,-29.58z"/>
     <path id="svg_153" fill="#00D3BB" d="m371.92,169.54661c-3,-0.15 -7.8,0.5 -9.86,3.8s-6,19.78 -6,19.78s5.42,4.73 12.41,4.63l3.45,-16.46l0,-11.75z"/>
     <path id="svg_154" fill="#ffbda7" d="m355.78,283.47661s-0.77,8.93 -2.11,11.85a43.88,43.88 0 0 1 -5.45,9.31c-0.53,0.68 -1.75,2 -2.19,2.52a1,1 0 0 0 0.19,1.57c1.21,1 6.13,1.05 8.77,-1.15s4.74,-5.71 6.29,-7.45c0.78,-0.87 1.51,-1.7 2,-2.32a2.2,2.2 0 0 0 0.44,-2.14c-0.06,-0.21 -0.14,-0.46 -0.23,-0.75c-0.77,-2.61 0.52,-10.2 0.52,-10.2c-2.5,-3.14 -5.29,-1.93 -8.23,-1.24z"/>
     <path id="svg_155" fill="#263238" d="m364.18,298.23661a2.85,2.85 0 0 1 -0.07,1.44c-0.25,0.67 -2,1.94 -3,2.46a5.9,5.9 0 0 0 -2.38,2.74a12.39,12.39 0 0 1 -4.78,5.29a15.58,15.58 0 0 1 -9.16,1.42c-3.88,-0.5 -4.31,-2.75 -4.31,-2.75s-0.31,-2.13 0.63,-2.51s23.07,-8.09 23.07,-8.09z"/>
     <path id="svg_156" fill="#37474f" d="m364.57,295.58661a6.27,6.27 0 0 1 -0.39,2.65c-1.06,1.63 -3.71,2.28 -5.15,4.51s-3.11,5.62 -8.1,6.88s-8.9,-0.16 -9.9,-1.54s-0.23,-2.79 2.92,-4.69c3.33,-2 7.16,-7.18 7.16,-7.18c1.26,-1.76 1.73,-4 2.39,-6.07c0.06,-0.2 0.17,-0.43 0.37,-0.45s0.38,0.29 0.52,0.5a1.62,1.62 0 0 0 1,0.56q0.66,0.19 1.35,0.33a12.18,12.18 0 0 0 2.76,0.19a1.13,1.13 0 0 1 0.87,0.2a1,1 0 0 1 0.2,0.76a8.78,8.78 0 0 1 -0.09,1a0.94,0.94 0 0 0 0,0.5a0.62,0.62 0 0 0 0.59,0.36a1.37,1.37 0 0 0 0.68,-0.25a3.09,3.09 0 0 0 1.56,-2.14s0,-0.51 0.05,-1a1.27,1.27 0 0 1 0.65,0.7c0.11,0.38 0.09,0.8 0.17,1.19a19.55,19.55 0 0 1 0.39,2.99z"/>
     <path id="svg_157" fill="#ffbda7" d="m334.36,271.78661s-1,9.23 -2.19,12.21a44.24,44.24 0 0 1 -5,9.54c-0.5,0.71 -1.67,2 -2.08,2.62a1,1 0 0 0 0.26,1.56c1.26,1 6.17,0.77 8.71,-1.54s4.49,-5.92 6,-7.73l1.93,-2.4a2.22,2.22 0 0 0 0.35,-2.16l-0.27,-0.74c-0.88,-2.58 1.43,-9.73 1.43,-9.73c-2.73,-3.02 -6.24,-2.45 -9.14,-1.63z"/>
     <path id="svg_158" fill="#263238" d="m342.81,287.04661a2.85,2.85 0 0 1 -0.07,1.44c-0.25,0.67 -2,1.94 -3,2.46a5.9,5.9 0 0 0 -2.38,2.74a12.39,12.39 0 0 1 -4.78,5.29a15.58,15.58 0 0 1 -9.16,1.42c-3.88,-0.5 -4.31,-2.75 -4.31,-2.75s-0.31,-2.13 0.63,-2.51s23.07,-8.09 23.07,-8.09z"/>
     <path id="svg_159" fill="#37474f" d="m343.2,284.39661a6.27,6.27 0 0 1 -0.39,2.65c-1.06,1.63 -3.71,2.28 -5.15,4.51s-3.11,5.62 -8.1,6.88s-8.9,-0.15 -9.9,-1.54s-0.23,-2.79 2.92,-4.69c3.33,-2 7.16,-7.18 7.16,-7.18c1.26,-1.76 1.73,-4 2.39,-6.07c0.06,-0.2 0.17,-0.43 0.37,-0.45s0.38,0.29 0.52,0.5a1.62,1.62 0 0 0 1,0.56q0.66,0.19 1.35,0.33a12.14,12.14 0 0 0 2.76,0.19a1.13,1.13 0 0 1 0.87,0.2a1,1 0 0 1 0.2,0.76a8.78,8.78 0 0 1 -0.09,1a0.94,0.94 0 0 0 0,0.5a0.61,0.61 0 0 0 0.59,0.36a1.37,1.37 0 0 0 0.68,-0.25a3,3 0 0 0 1.49,-2.14a8.77,8.77 0 0 1 0.12,-1a1.31,1.31 0 0 1 0.65,0.7c0.11,0.38 0.09,0.8 0.17,1.19a19.55,19.55 0 0 1 0.39,2.99z"/>
     <path id="svg_160" fill="#37474f" d="m399.21,218.34661l-11.87,-0.85l-24.15,-1.94s-22.19,12.4 -25.32,19.39c-1.83,4 -3.61,34.88 -3.92,39.44c1.66,1.33 6.53,2.77 8.56,2.42c1.26,-3.63 2.36,-5.19 4.12,-10.55c1.43,-4.36 2.76,-7.27 3.78,-10.28a44.64,44.64 0 0 0 2.13,-10.91s7.82,-5.35 13.68,-7.58c-3.23,3.54 -7.87,9.93 -8.49,11.34c-1.8,4 -2.46,33.13 -2.46,37.17c1.33,1.72 7.49,2.1 9.09,1c1.88,-6.6 3.27,-9.78 4.78,-15.2c2.41,-8.65 1.63,-12.15 1.27,-15.31c0,0 6.26,-4 14.37,-10.05a72.61,72.61 0 0 0 10,-8.8c4.22,-4.91 4.88,-13.66 4.43,-19.29z"/>
     <path id="svg_161" fill="#263238" d="m366.22,237.48661l6.69,-7.46s-6.8,-3 -8.06,-9.44a10.84,10.84 0 0 0 4.09,9.86l-4.53,6.33l-11.87,8.29c4.9,-2.5 9.78,-5.21 13.68,-7.58z"/>
     <path id="svg_162" fill="#455a64" d="m382.62,169.74661a56.65,56.65 0 0 1 9.41,1.19c3.48,1.19 4.5,2.09 6.19,6.9c2.51,7.17 1.74,17.07 1.74,23.85c0,9 -0.22,19.43 -0.22,19.43c-7.61,6.43 -32.4,3.45 -36.55,-5.56c0,0 2.11,-10.61 0.65,-31.16c-0.65,-9.2 2.63,-14.89 9,-14.89c0.01,0 6.57,0.1 9.78,0.24z"/>
     <path id="svg_163" fill="#263238" d="m375.55,147.51661a7.6,7.6 0 1 1 -7.94,-7.25a7.61,7.61 0 0 1 7.94,7.25z"/>
     <path id="svg_164" fill="#263238" d="m387.72,153.85661s-1.21,7.69 -1.78,9a3.32,3.32 0 0 1 -1.84,1.69l-0.13,-5.36l3.75,-5.33z"/>
     <path id="svg_165" fill="#263238" d="m385.28,142.98661s1.1,-0.33 2.37,1.47c1.09,1.55 1.48,5.1 0.07,9.36l-2.92,0.48l0.48,-11.31z"/>
     <path id="svg_166" fill="#263238" d="m386.42,144.48661l3.6,-0.1a1.69,1.69 0 0 0 -1.72,-1.82a2,2 0 0 0 -1.88,1.92z"/>
     <path id="svg_167" fill="#263238" d="m386.83,143.61661l2.55,-2.69a1.73,1.73 0 0 0 -2.53,0a2,2 0 0 0 -0.02,2.69z"/>
     <path id="svg_168" fill="#ffbda7" d="m383.93,154.33661c0.6,0.34 1.39,-0.87 2.08,-1.69s2.93,-1.68 4.23,0.86s-0.63,5.15 -2.26,6.11c-1.44,0.85 -3.24,-0.8 -3.24,-0.8l0.24,12c-2.15,4.9 -14.21,4.67 -11.24,0.77l-0.1,-3.88a19.71,19.71 0 0 1 -4.32,0.43c-2.37,-0.28 -3.48,-1.48 -4.38,-4.05a42.56,42.56 0 0 1 -1.89,-15.59c0.86,-8.44 11.09,-11.08 16.82,-7.69s4.06,13.53 4.06,13.53z"/>
     <path id="svg_169" fill="#263238" d="m370.87,146.95661a19,19 0 0 0 6,-2.07a0.8,0.8 0 0 1 0.59,-0.14c0.22,0.07 0.32,0.3 0.41,0.5a19,19 0 0 0 1.21,2.82a4.26,4.26 0 0 0 2.25,2a1.77,1.77 0 0 1 1,0.46a1.67,1.67 0 0 1 0.32,1a8.73,8.73 0 0 1 -0.16,1.35a3.62,3.62 0 0 0 0.13,2.24a1,1 0 0 0 1.48,0.18a5.78,5.78 0 0 0 1.08,-1.44a9.68,9.68 0 0 1 1.16,-1.46c0.41,-0.39 0.2,-1.22 0.27,-1.77c0.14,-1.1 0.19,-2.22 0.23,-3.33c0,-0.94 0.08,-1.9 0,-2.83a12.82,12.82 0 0 0 -0.39,-3.15a5.5,5.5 0 0 0 -1.42,-2.31l-0.2,-0.2a10,10 0 0 0 -6.75,-2.61c-2,-0.13 -4,0 -6,0a36.59,36.59 0 0 1 -6.45,-0.6a1.79,1.79 0 0 0 -0.89,0a1.12,1.12 0 0 0 -0.58,1.25a3.27,3.27 0 0 0 0.67,1.31a7.38,7.38 0 0 0 -2,-0.58a2.48,2.48 0 0 0 -2,0.65a2.93,2.93 0 0 0 -0.52,2.45a7.84,7.84 0 0 0 5.26,6a11.24,11.24 0 0 0 5.3,0.28z"/>
     <path id="svg_170" fill="#f0997a" d="m373.64,167.66661s5.23,-1.34 7,-2.45a6.06,6.06 0 0 0 2.43,-2.74a8.8,8.8 0 0 1 -1.31,3.17c-1.26,1.85 -8.07,3.48 -8.07,3.48l-0.05,-1.46z"/>
     <path id="svg_171" fill="#263238" d="m373.26,153.79661a1.06,1.06 0 1 0 2.11,-0.1a1.09,1.09 0 0 0 -1.1,-1.09a1.1,1.1 0 0 0 -1.01,1.19z"/>
     <path id="svg_172" fill="#263238" d="m373.74,150.29661l2.32,1.2a1.45,1.45 0 0 0 -0.61,-1.85a1.24,1.24 0 0 0 -1.71,0.65z"/>
     <path id="svg_173" fill="#f0997a" d="m374.66,161.08661l-3.14,1.39a1.66,1.66 0 0 0 2.22,1a1.89,1.89 0 0 0 0.92,-2.39z"/>
     <path id="svg_174" fill="#263238" d="m363.92,152.33661l2,-1.75a1.22,1.22 0 0 0 -1.8,-0.2a1.47,1.47 0 0 0 -0.2,1.95z"/>
     <path id="svg_175" fill="#263238" d="m364.69,154.49661a1.09,1.09 0 0 0 1.1,1.09a1.14,1.14 0 1 0 -1.1,-1.09z"/>
     <polygon id="svg_176" fill="#f0997a" points="369.94000244140625,153.31661462783813 370.4599914550781,160.12661218643188 366.6199951171875,159.50660181045532 369.94000244140625,153.31661462783813 "/>
    </g>
    <g id="freepik--Table--inject-338">
     <g id="freepik--table--inject-338">
      <path id="svg_177" fill="#37474f" d="m331.9,304.90661c-7.28,-4.21 -19.08,-4.21 -26.37,0c-3.64,2.1 -5.45,4.85 -5.45,7.61c0,0.28 0,2 0,2.37c0.06,2.71 1.87,5.41 5.45,7.48c7.29,4.2 19.09,4.2 26.37,0c3.6,-2.08 5.42,-4.8 5.46,-7.53l0,-2.37c-0.02,-2.74 -1.84,-5.47 -5.46,-7.56z"/>
      <path id="svg_178" fill="#455a64" d="m305.53,320.12661c-7.28,-4.2 -7.28,-11 0,-15.22s19.09,-4.21 26.37,0s7.28,11 0,15.22s-19.08,4.2 -26.37,0z"/>
      <path id="svg_179" fill="#37474f" d="m321,310.71661l0,0l0,-45.63l-4.6,0l0,45.63l0,0a1.08,1.08 0 0 0 0.66,1.06a3.6,3.6 0 0 0 3.29,0a1.09,1.09 0 0 0 0.65,-1.06z"/>
      <path id="svg_180" fill="#455a64" d="m356.94,222.92661c-21.14,-12.21 -55.41,-12.21 -76.55,0c-10.57,6.1 -15.85,14.1 -15.84,22.1l0,1.55c0,8 5.27,16 15.84,22.1c21.14,12.21 55.41,12.21 76.55,0c10.57,-6.1 15.85,-14.1 15.85,-22.1l0,-1.55c0,-8 -5.28,-16 -15.85,-22.1z"/>
      <path id="svg_181" fill="#00D3BB" d="m357,218.85661c-21.14,-12.2 -55.41,-12.2 -76.55,0c-10.57,6.11 -15.85,14.1 -15.85,22.1c0,1.65 0,1 0,2.67c0,8 5.28,16 15.85,22.1c21.14,12.2 55.41,12.2 76.55,0c10.57,-6.11 15.85,-15.22 15.85,-23.21c0,-1.65 0,0.09 0,-1.56c-0.01,-7.99 -5.29,-15.98 -15.85,-22.1z"/>
      <path id="svg_182" fill="#fff" opacity="0.4" d="m357,218.85661c-21.14,-12.2 -55.41,-12.2 -76.55,0c-10.57,6.11 -15.85,14.1 -15.85,22.1c0,1.65 0,1 0,2.67c0,8 5.28,16 15.85,22.1c21.14,12.2 55.41,12.2 76.55,0c10.57,-6.11 15.85,-15.22 15.85,-23.21c0,-1.65 0,0.09 0,-1.56c-0.01,-7.99 -5.29,-15.98 -15.85,-22.1z"/>
      <path id="svg_183" opacity="0.1" d="m357,218.85661c-21.14,-12.2 -55.41,-12.2 -76.55,0c-10.57,6.11 -15.85,14.1 -15.85,22.1c0,1.65 0,1 0,2.67c0,8 5.28,16 15.85,22.1c21.14,12.2 55.41,12.2 76.55,0c10.57,-6.11 15.85,-15.22 15.85,-23.21c0,-1.65 0,0.09 0,-1.56c-0.01,-7.99 -5.29,-15.98 -15.85,-22.1z"/>
      <path id="svg_184" fill="#00D3BB" d="m280.44,263.06661c-21.14,-12.2 -21.14,-32 0,-44.2s55.41,-12.2 76.55,0s21.14,32 0,44.2s-55.41,12.21 -76.55,0z"/>
      <path id="svg_185" fill="#fff" opacity="0.85" d="m280.39,263.06661c-21.14,-12.2 -21.14,-32 0,-44.2s55.41,-12.2 76.55,0s21.14,32 0,44.2s-55.41,12.21 -76.55,0z"/>
     </g>
    </g>
    <g id="freepik--laptop--inject-338">
     <path opacity="0.1" d="m308.72,227.78661l21.85,-12.62a1.29,1.29 0 0 1 1.26,0l37.91,21.9a0.27,0.27 0 0 1 0,0.48l-22.06,12.74l-38.96,-22.5z" id="freepik--shadow--inject-338"/>
     <path id="svg_186" fill="#37474f" d="m310.35,225.12661l0,0.49a2,2 0 0 0 1,1.75l35.31,20.39a2,2 0 0 0 1,0.27a2.08,2.08 0 0 0 1,-0.27l19.34,-11.08a2,2 0 0 0 1,-1.75l0,-0.68l0,0a0.24,0.24 0 0 1 -0.13,0.22l-21.14,12.21l-37.38,-21.55z"/>
     <path id="svg_187" fill="#263238" d="m347.68,246.68661l0,1.34a2.07,2.07 0 0 1 -1,-0.27l-35.31,-20.39a2,2 0 0 1 -1,-1.75l0,-0.49l37.31,21.56z"/>
     <path id="svg_188" fill="#455a64" d="m310.35,225.12661l20.94,-12.09a1.22,1.22 0 0 1 1.2,0l36.33,21a0.26,0.26 0 0 1 0,0.46l-21.14,12.21l-37.33,-21.58z"/>
     <polygon id="svg_189" fill="#37474f" points="347.8800048828125,244.9065957069397 359.1700134277344,238.39661645889282 326.1400146484375,219.32660913467407 314.7900085449219,225.8066201210022 347.8800048828125,244.9065957069397 "/>
     <polygon id="svg_190" fill="#263238" points="314.7900085449219,225.8066201210022 315.2200012207031,226.0566201210022 326.1400146484375,219.81659936904907 358.739990234375,238.63660669326782 359.1700134277344,238.39661645889282 326.1400146484375,219.32660913467407 314.7900085449219,225.8066201210022 "/>
     <polygon id="svg_191" fill="#263238" points="353.42999267578125,226.7866005897522 353.2200012207031,226.9065957069397 347.67999267578125,230.09659814834595 337.8399963378906,224.4166054725647 337.6300048828125,224.2966103553772 343.3800048828125,220.98661279678345 353.42999267578125,226.7866005897522 "/>
     <polygon id="svg_192" fill="#37474f" points="353.2200012207031,226.9065957069397 347.67999267578125,230.09659814834595 337.8399963378906,224.4166054725647 343.3800048828125,221.21659326553345 353.2200012207031,226.9065957069397 "/>
     <path fill="#ffbda7" d="m355.44,200.77661c-2.91,1.72 -6.56,4 -8.68,5.14s-3.68,1.84 -6.07,3c-1.84,0.91 -4.15,1.69 -5.48,2.94s-8.15,8 -9.63,9.17s-0.75,2.45 2,3.26a8.34,8.34 0 0 0 6.65,-0.69a27.74,27.74 0 0 0 4.54,-3.37a7,7 0 0 0 3.67,-1.24c1.45,-1.18 2.32,-2.59 3.15,-3.3s8.8,-3.68 14.84,-6l-4.99,-8.91z" id="freepik--arm--inject-338"/>
     <path id="svg_193" fill="#37474f" d="m347.11,246.97661a2.41,2.41 0 0 1 -2.06,-0.15l-35.16,-20.31a2.35,2.35 0 0 1 -1.16,-1.67l-3.85,-22.99a2.69,2.69 0 0 1 0,-0.4a2.4,2.4 0 0 1 0.7,-1.7l36.51,21.1a1.78,1.78 0 0 1 0.86,1.24l4.16,24.88z"/>
     <path id="svg_194" fill="#455a64" d="m347.68,246.68661l-0.24,0.14a1.66,1.66 0 0 1 -0.33,0.15l-4.11,-24.84a1.78,1.78 0 0 0 -0.86,-1.24l-36.54,-21.1a2.62,2.62 0 0 1 0.49,-0.37l36.62,21.14a1.77,1.77 0 0 1 0.85,1.24l4.12,24.88z"/>
     <path id="svg_195" fill="#263238" d="m342.61,221.36661l0.57,-0.33a1.71,1.71 0 0 1 0.33,0.77l4.17,24.88l-0.24,0.14a2.52,2.52 0 0 1 -0.33,0.15l-4.11,-24.84a1.84,1.84 0 0 0 -0.39,-0.77z"/>
     <path id="svg_196" fill="#00D3BB" d="m327.31,225.78661a7.79,7.79 0 0 0 -3.54,-4.56c-1.7,-1 -2.87,-0.53 -2.61,1a7.72,7.72 0 0 0 3.54,4.56c1.7,0.99 2.87,0.54 2.61,-1z"/>
    </g>
    <g id="freepik--pot--inject-338">
     <ellipse opacity="0.15" ry="5.04" rx="8.72" cy="245.99661" cx="284.8" id="freepik--shadow--inject-338"/>
     <g id="freepik--pot--inject-338">
      <path id="svg_197" fill="#37474f" d="m290.42,246.50661c3,-3.07 4.78,-10.74 1.84,-13.17l-14.93,0c-2.93,2.43 -1.16,10.09 1.84,13.16l0.08,0.09l0.11,0.1l0.27,0.24l0.07,0.06l0.23,0.17l0.39,0.25a9.89,9.89 0 0 0 9,0l0,0l0.39,-0.25c0.08,-0.05 0.14,-0.11 0.21,-0.16l0.09,-0.07l0.26,-0.24l0.12,-0.11l0.03,-0.07z"/>
      <path id="svg_198" fill="#455a64" d="m278.63,232.35661c-3.41,2 -3.41,5.15 0,7.12a13.62,13.62 0 0 0 12.34,0c3.4,-2 3.4,-5.16 0,-7.12a13.62,13.62 0 0 0 -12.34,0z"/>
      <path id="svg_199" fill="#263238" d="m281.05,233.74661c-2.08,1.2 -2.08,3.14 0,4.34a8.32,8.32 0 0 0 7.5,0c2.07,-1.2 2.07,-3.14 0,-4.34a8.32,8.32 0 0 0 -7.5,0z"/>
      <path id="svg_200" fill="#e0e0e0" d="m288.55,235.85661a8.26,8.26 0 0 0 -7.5,0a3.41,3.41 0 0 0 -1.25,1.14a3.59,3.59 0 0 0 1.25,1.14a8.32,8.32 0 0 0 7.5,0a3.47,3.47 0 0 0 1.24,-1.14a3.3,3.3 0 0 0 -1.24,-1.14z"/>
      <path id="svg_201" fill="#00D3BB" d="m281.14,236.85661a18.92,18.92 0 0 1 -3,-4c-1.37,-2.43 -1.62,-5.68 -0.91,-6.08s3.6,2.84 3.6,2.84a17.5,17.5 0 0 1 -0.31,-4.15c0.13,-2.16 0.65,-4.13 1.27,-4.53s2,2.34 2.61,4.32s0.95,3.6 0.95,3.6a30.29,30.29 0 0 1 1.06,-4.55c0.72,-2.06 1.38,-2.52 1.88,-2.32s0.85,1.16 1,3.9a27.18,27.18 0 0 1 -0.13,3.92s1,-1.12 2.15,-2.21s1.78,-1.36 2.14,-1.13s0.45,2.08 -1.48,5.57a19.52,19.52 0 0 1 -3.63,4.78s-2.65,1.78 -7.2,0.04z"/>
      <path id="svg_202" opacity="0.25" d="m281.14,236.85661a18.92,18.92 0 0 1 -3,-4c-1.37,-2.43 -1.62,-5.68 -0.91,-6.08s3.6,2.84 3.6,2.84a17.5,17.5 0 0 1 -0.31,-4.15c0.13,-2.16 0.65,-4.13 1.27,-4.53s2,2.34 2.61,4.32s0.95,3.6 0.95,3.6a30.29,30.29 0 0 1 1.06,-4.55c0.72,-2.06 1.38,-2.52 1.88,-2.32s0.85,1.16 1,3.9a27.18,27.18 0 0 1 -0.13,3.92s1,-1.12 2.15,-2.21s1.78,-1.36 2.14,-1.13s0.45,2.08 -1.48,5.57a19.52,19.52 0 0 1 -3.63,4.78s-2.65,1.78 -7.2,0.04z"/>
      <path id="svg_203" opacity="0.1" d="m282.9,232.01661a34.53,34.53 0 0 1 -2,-8.83a16,16 0 0 0 -0.31,2.34a17.5,17.5 0 0 0 0.31,4.15a8,8 0 0 0 2,2.34z"/>
      <path id="svg_204" opacity="0.1" d="m285.94,237.59661a10.12,10.12 0 0 1 -4.08,-1.68c-1.91,-1.42 -4.71,-5.93 -5,-7.74a10.51,10.51 0 0 0 1.3,4.74a18.92,18.92 0 0 0 3,4a10.49,10.49 0 0 0 4.78,0.68z"/>
     </g>
    </g>
    <g id="freepik--arm--inject-338">
     <path id="svg_205" fill="#ffbda7" d="m373.44,225.71661c1,-0.86 17.68,-6.53 20.72,-8.16s3.34,-3.08 4.2,-7.69c1.25,-6.69 3.77,-24.52 3.5,-30.21c-0.2,-4.11 -4.26,-8.4 -10.05,-8.09c-1.91,2 -3.39,7.53 -2.61,16.85c-0.32,4 -2.71,20.55 -2.71,20.55c-2.62,1.36 -8.86,5.26 -11.91,7c-2.16,1.2 -3.68,1.84 -6.07,3c-1.84,0.91 -4.15,1.69 -5.48,2.93s-8.15,8 -9.63,9.18s-0.75,2.45 2,3.26a8.34,8.34 0 0 0 6.65,-0.69a27.74,27.74 0 0 0 4.54,-3.37a6.9,6.9 0 0 0 3.66,-1.24c1.49,-1.18 2.36,-2.61 3.19,-3.32z"/>
     <path id="svg_206" fill="#00D3BB" d="m391.46,170.77661c3.13,0.31 6.69,0.34 9.24,3.78c1.95,2.65 1.5,5.35 0.86,13.81c-0.6,7.88 -1.27,12.68 -1.27,12.68s-4.73,2 -12.8,-2.24l1.24,-11s-1.64,-12.68 2.73,-17.03z"/>
    </g>
   </g>
  </g>
  <g id="freepik--Dog--inject-338">
   <g id="freepik--dog--inject-338">
    <path id="svg_207" fill="#37474f" d="m244.82,328.03661c-1.54,2.77 -5.77,6.6 -5.65,11s5.23,9.32 5.23,9.32l7.92,-3.05l-7.5,-17.27z"/>
    <path id="svg_208" fill="#37474f" d="m295.58,354.85661c1,1.16 4.25,5.39 3.26,12.67c-0.89,6.56 -6.78,9.77 -11,10.22c-1.84,0.19 -1.67,-0.91 -0.29,-1.46c2.87,-1.14 7.63,-3.7 7.85,-9.63s-3.18,-8.57 -3.18,-8.57l3.36,-3.23z"/>
    <path id="svg_209" fill="#f0f0f0" d="m295,372.79661a1.71,1.71 0 0 1 -1,-1.5a13.11,13.11 0 0 1 -6.46,4.94c-1.38,0.55 -1.55,1.65 0.29,1.46a13.35,13.35 0 0 0 8.61,-4.63a2.41,2.41 0 0 1 -1.44,-0.27z"/>
    <path id="svg_210" fill="#37474f" d="m267.36,343.33661c-6.29,0.17 -8.21,0.52 -9.69,2.88s3.26,6.54 3.26,6.54s-3.52,-0.78 -5.18,0s-0.92,3.22 5.18,5a85.6,85.6 0 0 0 11.93,2.44s8.82,-6.77 3.49,-13.12s-8.99,-3.74 -8.99,-3.74z"/>
    <path id="svg_211" fill="#37474f" d="m280.48,342.40661a19.56,19.56 0 0 0 -7.48,-10.84c-5.43,-3.83 -11.5,-7.07 -17.42,-7.51c-2.65,2.86 -7.89,2.89 -10.95,3.16a37.22,37.22 0 0 0 0.64,8.65c0.91,3.71 2.23,5.81 4.89,7.58c1.58,1 7.76,2.55 9.89,2.76a49.14,49.14 0 0 0 6.42,0.21a5.82,5.82 0 0 1 2.79,0.34a12.78,12.78 0 0 1 2.16,1.88a8.81,8.81 0 0 0 5.13,1.59a5.49,5.49 0 0 0 3.21,-0.46a3,3 0 0 0 1.41,-2.91a29.24,29.24 0 0 0 -0.69,-4.45z"/>
    <path id="svg_212" fill="#263238" d="m279.79,345.09661l1.36,1.42c0,0.11 0,0.23 0,0.34a3,3 0 0 1 -1.41,2.91a5.49,5.49 0 0 1 -3.21,0.46a8.81,8.81 0 0 1 -5.13,-1.59a12.78,12.78 0 0 0 -2.16,-1.88a4.79,4.79 0 0 0 -2.26,-0.35c4.45,-3.2 12.81,-1.31 12.81,-1.31z"/>
    <path id="svg_213" fill="#455a64" d="m259.62,318.71661c2.19,2.43 14.78,2.87 21.42,5.48c6.28,2.46 14.82,9 16.34,16.48c1.16,5.78 1.33,15 -6.71,20.85c-8.91,6.46 -26,0.62 -28.21,-0.24c-3.37,-1.35 -4.79,-3.07 -4.23,-4.22s2.7,-1.51 4.9,-1.1a41.29,41.29 0 0 1 5.46,1.64c-6.62,-5 -6.17,-9 -3.71,-10.72c4.55,-3.16 13.62,0.52 13.62,0.52a13,13 0 0 0 -1.92,-5.1c-1.11,-1.66 -5,-4.62 -8.18,-3.37s-4.4,4.44 -8.4,8.42s-13.74,6 -16.08,6.33a11.27,11.27 0 0 0 -5.77,2.57c-1.38,1.22 -2.39,2.82 -4,3.33a1.87,1.87 0 0 1 -2.06,-0.91c-2.13,0.53 -2.2,-1.27 -2.2,-1.27c-0.82,-0.94 -0.31,-2.44 1.52,-4.27s7.72,-5 12.83,-7s6.28,-3.11 8.28,-6.87c1.78,-3.33 1.55,-7.9 1.5,-11.19c0,-0.45 0,-0.85 0,-1.22"/>
    <path opacity="0.1" d="m253.29,328.91661c-4.1,1.43 -7.19,0.94 -8.63,0.06c0,-0.6 0,-1.19 0,-1.76c0.68,-0.5 1.66,0.39 2.36,0l3.53,-0.09l5.35,-2.92l4.49,-4.65a10.83,10.83 0 0 1 -7.1,9.36z" id="freepik--shadow--inject-338"/>
    <path id="svg_214" fill="#00D3BB" d="m244.65,325.40661c2.46,1.47 7.54,1.17 10.26,-1.17a10.38,10.38 0 0 0 4,-6.51a2.27,2.27 0 0 1 1.48,1.58c-0.27,1.61 -0.62,2.86 -2.88,5.27c-2.91,3.12 -9.23,4.93 -12.87,2.64a4.39,4.39 0 0 1 0.01,-1.81z"/>
    <path id="svg_215" opacity="0.3" d="m244.65,325.40661c2.46,1.47 7.54,1.17 10.26,-1.17a10.38,10.38 0 0 0 4,-6.51a2.27,2.27 0 0 1 1.48,1.58c-0.27,1.61 -0.62,2.86 -2.88,5.27c-2.91,3.12 -9.23,4.93 -12.87,2.64a4.39,4.39 0 0 1 0.01,-1.81z"/>
    <path id="svg_216" fill="#263238" d="m235.11,329.92661c0.1,-2.48 -0.19,-5.35 0.44,-5.66s1.32,0.57 1.32,0.57l-1,-6.43s-1.55,-0.22 -2.16,1.93s1.4,9.59 1.4,9.59z"/>
    <path id="svg_217" fill="#455a64" d="m242.34,311.01661c-3.3,1.35 -5.89,3 -6.63,5.88c-0.48,1.86 0.48,7 1.55,9.34s1.66,3.17 5.45,5.21c1.73,0.93 3.21,3 5.71,4.37c2,1.11 2.75,1.23 4.17,1a2.45,2.45 0 0 0 1.48,-0.93a5.47,5.47 0 0 0 1.31,-0.18c1.32,-0.39 2.09,-1.56 2.18,-3.33a20.22,20.22 0 0 0 -0.5,-5.15c-0.26,-1.53 0.88,-4.15 -0.37,-8c-1.58,-4.9 -4.6,-8.33 -6.56,-9.09s-4.59,-0.43 -7.79,0.88z"/>
    <path id="svg_218" fill="#f0f0f0" d="m253.41,327.33661c-2.21,-0.62 -3.43,-2.53 -4.11,-2.19s0.06,2.44 -0.32,3.76s-1,1.75 -1.78,3.25a5.66,5.66 0 0 0 -0.55,2.47a7.07,7.07 0 0 0 1.8,1.4c2,1.12 2.71,1.12 4.12,0.83a2.39,2.39 0 0 0 1.5,-1a4.88,4.88 0 0 0 1.38,-0.14c1.33,-0.38 2.1,-1.58 2.19,-3.35a16.71,16.71 0 0 0 -0.16,-2.62c-0.29,-1.79 -1.86,-1.79 -4.07,-2.41z"/>
    <path id="svg_219" fill="#e0e0e0" d="m257.51,333.29661a2.75,2.75 0 0 1 -0.84,1a4.66,4.66 0 0 1 -2.22,0.43l-1,0.23a3.2,3.2 0 0 1 -3.27,0.55a6,6 0 0 1 -3,-3.26a5.61,5.61 0 0 0 -0.51,2.37a7.07,7.07 0 0 0 1.8,1.4c2,1.12 2.71,1.12 4.12,0.83a2.39,2.39 0 0 0 1.5,-1a4.88,4.88 0 0 0 1.38,-0.14a3,3 0 0 0 2.04,-2.41z"/>
    <path id="svg_220" fill="#263238" d="m255,335.12661l0.15,-0.2s0.67,-1.35 0,-1.38a11,11 0 0 0 -3.43,1.51c-0.27,0.24 0.48,0.82 0.79,0.85a6.31,6.31 0 0 0 0.9,0l1.59,-0.78z"/>
    <path id="svg_221" fill="#455a64" d="m254.21,335.85661a1.51,1.51 0 0 1 -1.46,0c-0.14,-0.16 -0.43,-0.7 -0.67,-0.62s0.43,0.63 0.43,0.63a2.3,2.3 0 0 1 -1,-0.1c-0.5,-0.2 -1.09,-0.76 -1,-1.32a3.4,3.4 0 0 1 2.16,-2a3.18,3.18 0 0 1 2.76,0.05c0.34,0.19 0.47,1 0.32,1.56a1.53,1.53 0 0 1 -0.55,0.81s0.21,-0.81 0,-0.81s-0.1,0.94 -0.1,0.94s-0.1,0.61 -0.89,0.86z"/>
    <path id="svg_222" fill="#37474f" d="m255.45,332.60661l-0.07,-0.05a3.18,3.18 0 0 0 -2.76,-0.05a3.85,3.85 0 0 0 -2.07,1.71c1.77,0.04 4.28,-0.87 4.9,-1.61z"/>
    <path id="svg_223" fill="#263238" d="m252.21,323.85661a0.2,0.2 0 0 1 -0.31,-0.21a1.81,1.81 0 0 1 1,-1.11a7.48,7.48 0 0 0 2.21,-1.8c0.26,-0.55 0.63,0.68 -0.37,1.59a19.89,19.89 0 0 1 -2.53,1.53z"/>
    <path id="svg_224" fill="#263238" d="m246,326.17661a0.21,0.21 0 0 0 0,-0.39a2.32,2.32 0 0 0 -1.55,0.11a9.16,9.16 0 0 1 -2.78,0.65c-0.61,0 0.16,0.92 1.49,0.68a24.09,24.09 0 0 0 2.84,-1.05z"/>
    <path id="svg_225" fill="#37474f" d="m250.83,312.39661c1.36,-0.07 2.65,1.74 3.38,3.24a68.1,68.1 0 0 1 2.86,6.78c0.6,1.85 1.44,0.36 1.76,-2.77s0.89,-6.65 -0.18,-8.43s-3.58,-2.5 -6.35,-2.91c-1.76,-0.26 -2.74,0.63 -4.3,1.4a7.46,7.46 0 0 0 2.83,2.69z"/>
    <path id="svg_226" fill="#f0f0f0" d="m246.42,309.85661a18.28,18.28 0 0 0 -4.08,1.2a20.82,20.82 0 0 0 -3.34,1.71c2,-0.37 3.2,1.2 4.58,3.41s2.35,4.17 2.8,3.89s-2.21,-6.33 -2,-7.67a2.82,2.82 0 0 1 2.04,-2.54z"/>
    <path id="svg_227" fill="#37474f" d="m236.85,314.57661a6.52,6.52 0 0 0 -3.76,1.94a19.79,19.79 0 0 0 -2.62,4.73a5.41,5.41 0 0 0 0.8,4.26c0.79,1.27 2.45,4 2.63,5.39s0.9,0.68 1.16,-0.57s-0.33,-5.68 -0.5,-7.29s-0.34,-4.15 1.3,-4.63c1.4,-1.89 1.4,-3.16 0.99,-3.83z"/>
   </g>
  </g>
 </g>
</svg>