<svg height="512" viewBox="0 0 60 52" width="512" xmlns="http://www.w3.org/2000/svg"><g id="Page-1" fill="none" fill-rule="evenodd"><g id="038---Pet-Health" fill-rule="nonzero"><path id="Shape" d="m59 18.12c-.009976 1.9955356-.2379962 3.9840055-.68 5.93-2.11 9.61-9.62 21.91-28.32 27.95-18.7-6.04-26.21-18.34-28.32-27.95-.44200384-1.9459945-.67002399-3.9344644-.68-5.93 0-9.7 5.92-18.12 14.5-18.12 5.5342484.02237395 10.8011041 2.38337823 14.5 6.5 3.6988959-4.11662177 8.9657516-6.47762605 14.5-6.5 8.58 0 14.5 8.42 14.5 18.12z" fill="#df4d60"/><path id="Shape" d="m59 18.12c-.009976 1.9955356-.2379962 3.9840055-.68 5.93-5.36 6.51-16.03 10.95-28.32 10.95s-22.96-4.44-28.32-10.95c-.44200384-1.9459945-.67002399-3.9344644-.68-5.93 0-9.7 5.92-18.12 14.5-18.12 5.5342484.02237395 10.8011041 2.38337823 14.5 6.5 3.6988959-4.11662177 8.9657516-6.47762605 14.5-6.5 8.58 0 14.5 8.42 14.5 18.12z" fill="#ff5364"/><path id="Shape" d="m13 5.371c-.4964012.00195467-.9190933-.36053295-.9928406-.85142941-.0737474-.49089646.2237771-.96158217.6988406-1.10557059.9055008-.27645284 1.8472403-.41599478 2.794-.414.5522847.00000002 1 .44771526 1 1s-.4477153.99999998-1 1c-.747457-.0016892-1.4909806.10818782-2.206.326-.095209.02957139-.1943047.04473911-.294.045z" fill="#fb7b76"/><path id="Shape" d="m5 19.121c-.55228475 0-1-.4477153-1-1 0-5.247 2.056-10.189 5.366-12.895.27584897-.23274488.6557102-.29878775.9939277-.1728048.3382176.12598295.5823055.42444113.6386694.78093227.056364.35649115-.0837428.71569342-.3665971.93987253-2.814 2.301-4.632 6.755-4.632 11.347 0 .5522847-.44771525 1-1 1z" fill="#fb7b76"/><g fill="#35495e"><path id="Shape" d="m30 39c3.026 0 3.026 2 6.091 2 4.568 0 5-6 1.978-9s-3.026-7-8.069-7-5.043 4-8.069 7-2.59 9 1.978 9c3.065 0 3.065-2 6.091-2z"/><ellipse id="Oval" cx="23.963" cy="16.5" rx="4" ry="5.5" transform="matrix(.99 -.142 .142 .99 -2.104 3.577)"/><ellipse id="Oval" cx="36.037" cy="16.499" rx="5.5" ry="4" transform="matrix(.142 -.99 .99 .142 14.578 49.822)"/></g><path id="Shape" d="m14 39c-.3952897.0000502-.7535124-.2327554-.914-.594l-3.139-7.064-1.047 2.105c-.17022592.3406694-.51917438.5550788-.9.553h-7c-.55228475 0-1-.4477153-1-1s.44771525-1 1-1h6.382l1.723-3.447c.17002218-.3488978.52907891-.5654282.917-.553.3872873.0085148.734817.2399415.892.594l2.82 6.346 2.3-9.183c.1373346-.5320593.6782442-.8536288 1.2112708-.7200974.5330265.1335314.8584506.6721308.7287292 1.2060974l-3 12c-.1037007.4135797-.4582333.715916-.883.753-.030241.0029455-.0606172.0042808-.091.004z" fill="#ecf0f1"/><path id="Shape" d="m47 37h-.048c-.4121922-.0201486-.7696712-.2914355-.9-.683l-3.338-10c-.1128959-.3394023-.0361471-.7132522.201336-.9807241.237483-.2674719.599621-.3879305.95-.3160001.350379.0719305.6357681.3253219.748664.6647242l2.523 7.555 2.953-6.645c.1674247-.3622783.5299057-.5944378.929-.595.4019995.0073578.7604985.2547615.91.628l1.748 4.372h5.323c.5522847 0 1 .4477153 1 1s-.4477153 1-1 1h-6c-.408945.0003137-.7768725-.2484037-.929-.628l-1.12-2.8-3.037 6.835c-.160787.3608536-.5189459.5932259-.914.593z" fill="#ecf0f1"/><ellipse id="Oval" cx="16.215" cy="25.169" fill="#35495e" rx="3" ry="4" transform="matrix(.9 -.436 .436 .9 -9.356 9.596)"/><ellipse id="Oval" cx="43.785" cy="25.169" fill="#35495e" rx="4" ry="3" transform="matrix(.436 -.9 .9 .436 2.035 53.587)"/></g></g></svg>