<svg height="512" viewBox="0 0 128 128" width="512" xmlns="http://www.w3.org/2000/svg"><g><path d="m126.25 74.008c0 28.284-27.87 41.205-62.25 41.205s-62.25-12.921-62.25-41.205 27.87-61.221 62.25-61.221 62.25 32.937 62.25 61.221z" fill="#565e75"/><path d="m85.313 47.831a15.563 15.563 0 0 0 -15.563 15.563v4.422h-11.5v-4.422a15.563 15.563 0 1 0 -31.125 0v15.3a23 23 0 0 0 23 23h27.75a23 23 0 0 0 23-23v-15.3a15.563 15.563 0 0 0 -15.562-15.563z" fill="#efedff"/><path d="m75.375 77.845-5.625-10.029h-11.5l-5.625 10.029a43.753 43.753 0 0 1 11.375-2 43.753 43.753 0 0 1 11.375 2z" fill="#f5ea72"/><path d="m64 75.844a43.753 43.753 0 0 0 -11.375 2l11.375 7.375 11.375-7.374a43.753 43.753 0 0 0 -11.375-2.001z" fill="#ffb655"/><g fill="#565e75"><path d="m87.125 64.469a4.531 4.531 0 1 1 -4.531-4.531 4.532 4.532 0 0 1 4.531 4.531z"/><path d="m40.875 64.469a4.532 4.532 0 1 0 4.531-4.531 4.532 4.532 0 0 0 -4.531 4.531z"/></g></g></svg>