<?xml version="1.0" standalone="no"?><svg xmlns="http://www.w3.org/2000/svg" viewBox="0 0 1400 290"><path fill="#F3F4F5" fill-opacity="1" d="M0,128L26.7,138.7C53.3,149,107,171,160,197.3C213.3,224,267,256,320,250.7C373.3,245,427,203,480,176C533.3,149,587,139,640,133.3C693.3,128,747,128,800,154.7C853.3,181,907,235,960,256C1013.3,277,1067,267,1120,234.7C1173.3,203,1227,149,1280,144C1333.3,139,1387,181,1413,202.7L1440,224L1440,320L1413.3,320C1386.7,320,1333,320,1280,320C1226.7,320,1173,320,1120,320C1066.7,320,1013,320,960,320C906.7,320,853,320,800,320C746.7,320,693,320,640,320C586.7,320,533,320,480,320C426.7,320,373,320,320,320C266.7,320,213,320,160,320C106.7,320,53,320,27,320L0,320Z"></path></svg>